<svg viewBox="0 0 960 300" width="100%" height="300" role="img" aria-label="{{index.a187}}">
<line class="g" x1="58" x2="940" y1="262.0" y2="262.0"/>
<text class="ax" x="52" y="266.0" text-anchor="end">+0%</text>
<line class="g" x1="58" x2="940" y1="56.7" y2="56.7"/>
<text class="ax" x="52" y="60.7" text-anchor="end">+1000%</text>
<line class="g" x1="58" x2="58" y1="16" y2="262"/>
<text class="ax" x="58" y="278" text-anchor="middle">2021</text>
<line class="g" x1="124" x2="124" y1="16" y2="262"/>
<text class="ax" x="124" y="278" text-anchor="middle">2022</text>
<line class="g" x1="303" x2="303" y1="16" y2="262"/>
<text class="ax" x="303" y="278" text-anchor="middle">2023</text>
<line class="g" x1="483" x2="483" y1="16" y2="262"/>
<text class="ax" x="483" y="278" text-anchor="middle">2024</text>
<line class="g" x1="659" x2="659" y1="16" y2="262"/>
<text class="ax" x="659" y="278" text-anchor="middle">2025</text>
<line class="g" x1="830" x2="830" y1="16" y2="262"/>
<text class="ax" x="830" y="278" text-anchor="middle">2026</text>
<path class="s3" d="M58.0,261.4 L58.7,261.4 L59.5,260.9 L60.2,261.2 L61.0,261.4 L61.7,261.2 L62.5,261.1 L63.2,261.9 L63.9,261.2 L64.7,259.0 L65.4,259.4 L66.2,259.5 L66.9,259.7 L67.6,258.6 L68.4,258.1 L69.1,257.6 L69.9,257.9 L70.6,257.9 L71.4,258.4 L72.1,257.7 L72.8,258.2 L73.6,257.9 L74.3,256.4 L75.1,255.9 L75.8,254.9 L76.5,254.4 L77.3,254.0 L78.0,252.8 L78.8,253.3 L79.5,253.2 L80.3,253.3 L81.0,253.1 L81.7,253.1 L82.5,253.3 L83.2,253.2 L84.0,253.7 L84.7,253.9 L85.4,253.8 L86.2,252.5 L86.9,252.5 L87.7,252.8 L88.4,252.4 L89.2,252.1 L89.9,252.3 L90.6,252.5 L91.4,252.1 L92.1,251.9 L92.9,249.2 L93.6,249.4 L94.3,250.1 L95.1,249.7 L95.8,250.2 L96.6,250.4 L97.3,250.8 L98.1,250.7 L98.8,250.2 L99.5,250.4 L100.3,250.4 L101.0,250.3 L101.8,250.5 L102.5,250.7 L103.2,250.4 L104.0,250.6 L104.7,250.5 L105.5,251.7 L106.2,250.7 L107.0,250.7 L107.7,249.0 L108.4,248.3 L109.2,248.7 L109.9,248.4 L110.7,248.6 L111.4,247.6 L112.2,245.8 L112.9,244.8 L113.6,245.2 L114.4,244.6 L115.1,244.2 L115.9,244.8 L116.6,244.8 L117.3,244.0 L118.1,244.4 L118.8,243.7 L119.6,244.0 L120.3,244.2 L121.1,244.3 L121.8,243.9 L122.5,244.1 L123.3,244.6 L124.0,243.8 L124.8,243.3 L125.5,243.8 L126.2,244.0 L127.0,244.4 L127.7,244.8 L128.5,244.9 L129.2,244.8 L130.0,244.6 L130.7,244.4 L131.4,244.9 L132.2,245.1 L132.9,244.1 L133.7,244.9 L134.4,245.4 L135.1,244.9 L135.9,245.2 L136.6,246.2 L137.4,245.6 L138.1,245.7 L138.9,245.5 L139.6,241.4 L140.3,241.2 L141.1,241.5 L141.8,241.9 L142.6,241.2 L143.3,241.0 L144.0,240.6 L144.8,241.0 L145.5,241.0 L146.3,240.8 L147.0,241.4 L147.8,241.7 L148.5,242.3 L149.2,243.4 L150.0,242.1 L150.7,242.1 L151.5,241.4 L152.2,241.3 L153.0,241.5 L153.7,242.4 L154.4,241.4 L155.2,240.2 L155.9,239.5 L156.7,239.3 L157.4,238.6 L158.1,239.2 L158.9,238.9 L159.6,238.6 L160.4,239.0 L161.1,239.1 L161.9,238.5 L162.6,237.3 L163.3,237.3 L164.1,237.3 L164.8,237.7 L165.6,238.1 L166.3,238.8 L167.0,237.7 L167.8,238.3 L168.5,237.7 L169.3,238.1 L170.0,237.0 L170.8,237.2 L171.5,237.4 L172.2,237.6 L173.0,237.6 L173.7,237.8 L174.5,236.7 L175.2,236.7 L175.9,235.5 L176.7,236.0 L177.4,235.8 L178.2,236.3 L178.9,235.7 L179.7,233.7 L180.4,233.5 L181.1,233.3 L181.9,232.1 L182.6,231.7 L183.4,231.9 L184.1,232.1 L184.8,232.8 L185.6,232.8 L186.3,233.2 L187.1,233.3 L187.8,232.9 L188.6,231.9 L189.3,231.5 L190.0,232.5 L190.8,231.5 L191.5,231.7 L192.3,232.4 L193.0,231.9 L193.7,232.1 L194.5,232.6 L195.2,232.9 L196.0,233.3 L196.7,233.5 L197.5,234.1 L198.2,234.0 L198.9,233.4 L199.7,232.5 L200.4,231.9 L201.2,232.1 L201.9,231.6 L202.7,230.8 L203.4,230.4 L204.1,230.6 L204.9,230.0 L205.6,229.9 L206.4,230.1 L207.1,230.2 L207.8,230.6 L208.6,230.4 L209.3,230.8 L210.1,229.6 L210.8,228.9 L211.6,228.9 L212.3,228.3 L213.0,228.4 L213.8,228.6 L214.5,229.3 L215.3,229.2 L216.0,229.1 L216.7,230.0 L217.5,230.0 L218.2,230.8 L219.0,230.7 L219.7,229.8 L220.5,229.1 L221.2,229.3 L221.9,229.5 L222.7,228.1 L223.4,227.2 L224.2,227.6 L224.9,227.8 L225.6,228.5 L226.4,228.5 L227.1,228.7 L227.9,227.9 L228.6,228.2 L229.4,227.1 L230.1,227.4 L230.8,227.0 L231.6,227.1 L232.3,227.3 L233.1,227.5 L233.8,228.0 L234.5,228.4 L235.3,228.4 L236.0,229.2 L236.8,228.8 L237.5,229.0 L238.3,227.6 L239.0,227.7 L239.7,225.8 L240.5,224.8 L241.2,225.0 L242.0,225.8 L242.7,226.0 L243.4,226.4 L244.2,225.0 L244.9,224.8 L245.7,225.2 L246.4,225.7 L247.2,224.4 L247.9,224.2 L248.6,223.1 L249.4,222.6 L250.1,223.1 L250.9,223.7 L251.6,223.3 L252.4,223.7 L253.1,223.5 L253.8,222.1 L254.6,221.9 L255.3,221.4 L256.1,220.8 L256.8,219.1 L257.5,219.0 L258.3,219.4 L259.0,218.9 L259.8,218.7 L260.5,219.6 L261.3,219.7 L262.0,220.0 L262.7,216.8 L263.5,216.6 L264.2,216.8 L265.0,217.0 L265.7,215.6 L266.4,216.9 L267.2,215.1 L267.9,215.4 L268.7,215.1 L269.4,215.3 L270.2,215.5 L270.9,216.3 L271.6,216.3 L272.4,216.1 L273.1,216.3 L273.9,215.9 L274.6,215.8 L275.3,215.9 L276.1,215.1 L276.8,215.0 L277.6,213.7 L278.3,214.4 L279.1,214.6 L279.8,213.9 L280.5,214.1 L281.3,214.2 L282.0,213.4 L282.8,213.6 L283.5,214.0 L284.2,214.2 L285.0,213.4 L285.7,212.9 L286.5,212.5 L287.2,212.7 L288.0,212.3 L288.7,211.8 L289.4,211.5 L290.2,210.7 L290.9,210.3 L291.7,210.6 L292.4,210.4 L293.2,210.6 L293.9,210.2 L294.6,209.8 L295.4,207.2 L296.1,207.4 L296.9,207.1 L297.6,206.3 L298.3,205.4 L299.1,204.2 L299.8,204.0 L300.6,202.5 L301.3,203.2 L302.1,202.6 L302.8,202.8 L303.5,202.4 L304.3,200.7 L305.0,200.3 L305.8,200.6 L306.5,201.0 L307.2,200.4 L308.0,199.8 L308.7,199.9 L309.5,200.8 L310.2,201.5 L311.0,200.5 L311.7,201.1 L312.4,201.3 L313.2,201.5 L313.9,202.0 L314.7,202.2 L315.4,202.4 L316.1,202.8 L316.9,203.0 L317.6,202.8 L318.4,201.9 L319.1,199.7 L319.9,200.0 L320.6,199.8 L321.3,200.1 L322.1,199.7 L322.8,199.1 L323.6,199.0 L324.3,198.8 L325.0,198.3 L325.8,198.5 L326.5,197.9 L327.3,197.2 L328.0,197.9 L328.8,198.2 L329.5,198.7 L330.2,197.8 L331.0,197.7 L331.7,197.3 L332.5,196.9 L333.2,196.2 L333.9,195.1 L334.7,195.5 L335.4,195.4 L336.2,194.8 L336.9,195.4 L337.7,195.8 L338.4,193.7 L339.1,193.9 L339.9,193.5 L340.6,193.3 L341.4,193.5 L342.1,193.9 L342.9,194.1 L343.6,194.2 L344.3,193.9 L345.1,193.7 L345.8,193.1 L346.6,193.1 L347.3,193.0 L348.0,192.0 L348.8,191.7 L349.5,190.8 L350.3,190.5 L351.0,189.8 L351.8,190.3 L352.5,189.1 L353.2,189.4 L354.0,189.6 L354.7,189.8 L355.5,191.2 L356.2,191.4 L356.9,191.0 L357.7,190.6 L358.4,188.1 L359.2,188.3 L359.9,189.2 L360.7,189.0 L361.4,188.9 L362.1,189.0 L362.9,189.2 L363.6,189.6 L364.4,189.2 L365.1,189.2 L365.8,189.0 L366.6,189.2 L367.3,189.7 L368.1,189.3 L368.8,188.5 L369.6,188.7 L370.3,189.2 L371.0,188.5 L371.8,186.0 L372.5,186.0 L373.3,186.2 L374.0,186.8 L374.7,186.2 L375.5,186.5 L376.2,186.7 L377.0,186.8 L377.7,187.2 L378.5,185.9 L379.2,185.5 L379.9,185.8 L380.7,186.0 L381.4,185.5 L382.2,185.0 L382.9,184.8 L383.7,185.1 L384.4,185.6 L385.1,186.2 L385.9,186.4 L386.6,185.9 L387.4,185.9 L388.1,186.1 L388.8,185.4 L389.6,185.6 L390.3,185.0 L391.1,184.9 L391.8,184.9 L392.6,185.3 L393.3,183.8 L394.0,182.8 L394.8,183.5 L395.5,183.1 L396.3,182.2 L397.0,181.2 L397.7,181.3 L398.5,180.8 L399.2,181.0 L400.0,181.3 L400.7,181.7 L401.5,181.9 L402.2,182.7 L402.9,182.1 L403.7,182.5 L404.4,178.9 L405.2,177.8 L405.9,178.0 L406.6,177.5 L407.4,177.7 L408.1,177.6 L408.9,178.1 L409.6,178.3 L410.4,178.2 L411.1,177.5 L411.8,177.7 L412.6,177.9 L413.3,178.0 L414.1,178.1 L414.8,178.2 L415.5,177.8 L416.3,176.8 L417.0,176.6 L417.8,175.3 L418.5,175.7 L419.3,173.8 L420.0,174.2 L420.7,174.0 L421.5,173.7 L422.2,173.6 L423.0,173.8 L423.7,174.1 L424.4,174.2 L425.2,173.5 L425.9,173.8 L426.7,173.0 L427.4,173.6 L428.2,173.8 L428.9,172.8 L429.6,172.9 L430.4,172.1 L431.1,172.3 L431.9,172.3 L432.6,172.2 L433.4,171.8 L434.1,171.6 L434.8,172.2 L435.6,172.5 L436.3,172.3 L437.1,171.8 L437.8,172.2 L438.5,172.6 L439.3,173.7 L440.0,173.5 L440.8,172.7 L441.5,170.5 L442.3,170.1 L443.0,170.6 L443.7,169.7 L444.5,170.1 L445.2,170.5 L446.0,169.2 L446.7,168.3 L447.4,168.6 L448.2,169.1 L448.9,167.1 L449.7,166.9 L450.4,165.0 L451.2,165.2 L451.9,164.3 L452.6,164.7 L453.4,164.2 L454.1,163.0 L454.9,162.2 L455.6,162.2 L456.3,162.6 L457.1,162.8 L457.8,161.4 L458.6,161.2 L459.3,161.2 L460.1,159.8 L460.8,159.6 L461.5,160.0 L462.3,159.3 L463.0,158.1 L463.8,158.3 L464.5,158.8 L465.2,158.8 L466.0,158.8 L466.7,158.7 L467.5,158.6 L468.2,159.1 L469.0,159.5 L469.7,159.1 L470.4,158.1 L471.2,157.8 L471.9,157.2 L472.7,158.2 L473.4,157.6 L474.1,158.1 L474.9,156.7 L475.6,158.0 L476.4,157.7 L477.1,157.5 L477.9,157.8 L478.6,158.6 L479.3,159.1 L480.1,159.3 L480.8,159.5 L481.6,159.4 L482.3,159.3 L483.1,158.2 L483.8,158.6 L484.5,158.9 L485.3,159.2 L486.0,157.8 L486.8,158.0 L487.5,158.2 L488.2,157.3 L489.0,155.4 L489.7,154.8 L490.5,153.2 L491.2,153.8 L492.0,153.7 L492.7,153.9 L493.4,154.1 L494.2,152.7 L494.9,152.1 L495.7,151.6 L496.4,151.5 L497.1,151.5 L497.9,150.8 L498.6,150.8 L499.4,150.3 L500.1,150.7 L500.9,150.9 L501.6,150.9 L502.3,151.3 L503.1,151.7 L503.8,151.5 L504.6,151.2 L505.3,151.6 L506.0,151.9 L506.8,151.7 L507.5,151.9 L508.3,151.9 L509.0,150.6 L509.8,150.0 L510.5,149.7 L511.2,149.4 L512.0,148.8 L512.7,149.1 L513.5,147.7 L514.2,147.9 L514.9,147.9 L515.7,147.7 L516.4,147.9 L517.2,149.3 L517.9,149.7 L518.7,150.6 L519.4,150.4 L520.1,150.2 L520.9,149.9 L521.6,149.1 L522.4,148.6 L523.1,148.5 L523.9,147.6 L524.6,147.8 L525.3,147.7 L526.1,147.0 L526.8,147.2 L527.6,147.2 L528.3,146.7 L529.0,147.1 L529.8,147.9 L530.5,146.0 L531.3,146.0 L532.0,146.0 L532.8,146.2 L533.5,145.5 L534.2,145.6 L535.0,146.2 L535.7,146.6 L536.5,146.0 L537.2,145.4 L537.9,145.7 L538.7,144.9 L539.4,144.0 L540.2,144.2 L540.9,144.6 L541.7,142.9 L542.4,142.0 L543.1,142.2 L543.9,142.5 L544.6,142.6 L545.4,143.0 L546.1,142.9 L546.8,143.1 L547.6,142.5 L548.3,142.7 L549.1,143.1 L549.8,142.4 L550.6,141.3 L551.3,139.5 L552.0,139.4 L552.8,139.6 L553.5,138.7 L554.3,138.2 L555.0,137.6 L555.7,135.3 L556.5,134.5 L557.2,133.8 L558.0,133.1 L558.7,133.4 L559.5,133.2 L560.2,133.4 L560.9,133.1 L561.7,131.0 L562.4,130.8 L563.2,130.4 L563.9,131.0 L564.6,129.8 L565.4,130.0 L566.1,130.2 L566.9,129.5 L567.6,130.1 L568.4,128.9 L569.1,126.7 L569.8,127.1 L570.6,126.3 L571.3,126.2 L572.1,126.2 L572.8,123.8 L573.6,124.2 L574.3,124.1 L575.0,123.5 L575.8,123.5 L576.5,121.0 L577.3,121.3 L578.0,121.4 L578.7,121.6 L579.5,120.9 L580.2,120.7 L581.0,120.9 L581.7,121.3 L582.5,121.7 L583.2,120.0 L583.9,120.4 L584.7,120.8 L585.4,120.7 L586.2,120.8 L586.9,120.8 L587.6,121.3 L588.4,121.5 L589.1,122.1 L589.9,122.6 L590.6,122.8 L591.4,122.8 L592.1,123.2 L592.8,122.9 L593.6,122.0 L594.3,120.3 L595.1,120.5 L595.8,120.8 L596.5,121.2 L597.3,121.5 L598.0,120.5 L598.8,120.0 L599.5,120.3 L600.3,120.0 L601.0,119.8 L601.7,120.4 L602.5,120.4 L603.2,120.6 L604.0,119.8 L604.7,118.7 L605.4,117.7 L606.2,118.1 L606.9,118.3 L607.7,117.9 L608.4,118.1 L609.2,118.5 L609.9,118.1 L610.6,117.7 L611.4,117.8 L612.1,117.3 L612.9,117.3 L613.6,117.9 L614.3,118.8 L615.1,117.4 L615.8,115.4 L616.6,115.7 L617.3,114.2 L618.1,111.9 L618.8,112.1 L619.5,112.9 L620.3,112.7 L621.0,112.7 L621.8,111.6 L622.5,110.8 L623.3,109.9 L624.0,109.8 L624.7,110.3 L625.5,110.0 L626.2,110.1 L627.0,110.6 L627.7,110.9 L628.4,111.3 L629.2,111.0 L629.9,111.0 L630.7,109.8 L631.4,109.6 L632.2,109.5 L632.9,109.4 L633.6,109.8 L634.4,110.0 L635.1,110.8 L635.9,111.0 L636.6,109.6 L637.3,110.0 L638.1,109.4 L638.8,109.8 L639.6,110.0 L640.3,108.8 L641.1,108.3 L641.8,107.3 L642.5,106.5 L643.3,107.0 L644.0,106.6 L644.8,106.7 L645.5,107.1 L646.2,107.3 L647.0,107.4 L647.7,107.6 L648.5,107.3 L649.2,106.7 L650.0,106.4 L650.7,106.8 L651.4,105.6 L652.2,105.8 L652.9,104.3 L653.7,103.7 L654.4,104.1 L655.1,104.4 L655.9,104.1 L656.6,103.8 L657.4,103.6 L658.1,103.2 L658.9,103.3 L659.6,103.4 L660.3,103.6 L661.1,104.0 L661.8,103.9 L662.6,102.8 L663.3,103.6 L664.1,104.0 L664.8,101.9 L665.5,101.9 L666.3,101.7 L667.0,101.9 L667.8,102.5 L668.5,102.1 L669.2,101.8 L670.0,100.9 L670.7,101.1 L671.5,100.1 L672.2,100.5 L673.0,99.7 L673.7,100.3 L674.4,99.3 L675.2,99.1 L675.9,100.0 L676.7,100.6 L677.4,100.4 L678.1,98.1 L678.9,98.3 L679.6,98.7 L680.4,98.9 L681.1,99.9 L681.9,99.9 L682.6,99.6 L683.3,98.0 L684.1,98.0 L684.8,96.8 L685.6,95.7 L686.3,95.7 L687.0,94.7 L687.8,94.4 L688.5,94.0 L689.3,93.4 L690.0,93.6 L690.8,94.1 L691.5,94.2 L692.2,93.1 L693.0,93.2 L693.7,92.6 L694.5,92.4 L695.2,92.1 L695.9,90.9 L696.7,90.3 L697.4,90.0 L698.2,89.9 L698.9,90.6 L699.7,91.4 L700.4,91.6 L701.1,90.2 L701.9,90.6 L702.6,90.7 L703.4,92.0 L704.1,92.2 L704.8,92.3 L705.6,91.5 L706.3,91.9 L707.1,90.8 L707.8,90.2 L708.6,89.9 L709.3,89.7 L710.0,87.4 L710.8,87.6 L711.5,87.6 L712.3,87.3 L713.0,87.5 L713.8,86.0 L714.5,86.4 L715.2,86.1 L716.0,84.5 L716.7,85.1 L717.5,85.1 L718.2,85.2 L718.9,85.2 L719.7,85.8 L720.4,86.0 L721.2,84.6 L721.9,84.8 L722.7,85.0 L723.4,85.2 L724.1,84.6 L724.9,85.0 L725.6,85.1 L726.4,85.5 L727.1,85.9 L727.8,85.7 L728.6,85.5 L729.3,86.2 L730.1,86.2 L730.8,86.2 L731.6,86.9 L732.3,87.3 L733.0,86.6 L733.8,87.0 L734.5,87.3 L735.3,87.1 L736.0,86.1 L736.7,85.7 L737.5,85.8 L738.2,84.6 L739.0,84.5 L739.7,84.3 L740.5,84.5 L741.2,82.5 L741.9,82.0 L742.7,80.7 L743.4,78.9 L744.2,78.6 L744.9,78.9 L745.6,78.9 L746.4,79.4 L747.1,80.1 L747.9,79.7 L748.6,79.5 L749.4,79.9 L750.1,79.6 L750.8,79.4 L751.6,79.9 L752.3,79.7 L753.1,80.1 L753.8,80.0 L754.6,80.4 L755.3,78.4 L756.0,78.6 L756.8,78.2 L757.5,78.2 L758.3,77.6 L759.0,77.8 L759.7,76.9 L760.5,75.8 L761.2,75.9 L762.0,75.9 L762.7,76.2 L763.5,76.4 L764.2,76.7 L764.9,77.1 L765.7,75.8 L766.4,75.7 L767.2,72.7 L767.9,72.9 L768.6,72.1 L769.4,72.2 L770.1,72.6 L770.9,72.4 L771.6,72.3 L772.4,71.6 L773.1,72.0 L773.8,72.1 L774.6,71.2 L775.3,70.5 L776.1,71.6 L776.8,72.5 L777.5,72.9 L778.3,72.9 L779.0,73.6 L779.8,73.4 L780.5,72.4 L781.3,73.4 L782.0,72.4 L782.7,72.4 L783.5,72.0 L784.2,72.3 L785.0,72.6 L785.7,71.9 L786.4,71.4 L787.2,70.6 L787.9,70.3 L788.7,70.2 L789.4,70.4 L790.2,71.1 L790.9,71.1 L791.6,70.7 L792.4,68.5 L793.1,68.7 L793.9,68.7 L794.6,67.5 L795.3,68.2 L796.1,68.0 L796.8,66.2 L797.6,65.8 L798.3,66.2 L799.1,64.4 L799.8,63.9 L800.5,63.8 L801.3,64.0 L802.0,63.7 L802.8,63.5 L803.5,64.0 L804.3,63.1 L805.0,63.2 L805.7,62.8 L806.5,63.4 L807.2,60.8 L808.0,60.3 L808.7,58.5 L809.4,59.0 L810.2,58.7 L810.9,59.6 L811.7,58.2 L812.4,58.0 L813.2,58.3 L813.9,58.8 L814.6,59.4 L815.4,58.8 L816.1,58.4 L816.9,58.4 L817.6,57.7 L818.3,58.2 L819.1,57.8 L819.8,56.5 L820.6,55.9 L821.3,56.4 L822.1,57.0 L822.8,56.9 L823.5,57.0 L824.3,55.5 L825.0,55.7 L825.8,55.7 L826.5,56.5 L827.2,55.8 L828.0,56.3 L828.7,55.5 L829.5,54.1 L830.2,53.8 L831.0,54.5 L831.7,55.0 L832.4,53.9 L833.2,53.3 L833.9,54.0 L834.7,54.3 L835.4,54.6 L836.1,53.6 L836.9,52.9 L837.6,53.1 L838.4,52.7 L839.1,51.5 L839.9,51.1 L840.6,51.3 L841.3,51.2 L842.1,50.8 L842.8,51.3 L843.6,50.6 L844.3,48.9 L845.0,49.3 L845.8,49.9 L846.5,49.5 L847.3,49.3 L848.0,48.7 L848.8,48.9 L849.5,48.1 L850.2,48.0 L851.0,48.0 L851.7,48.0 L852.5,47.3 L853.2,47.6 L854.0,46.7 L854.7,47.0 L855.4,47.2 L856.2,47.0 L856.9,46.6 L857.7,46.7 L858.4,44.6 L859.1,44.7 L859.9,44.3 L860.6,43.2 L861.4,43.7 L862.1,44.1 L862.9,42.7 L863.6,42.2 L864.3,42.7 L865.1,42.9 L865.8,40.6 L866.6,40.8 L867.3,39.6 L868.0,37.8 L868.8,38.0 L869.5,38.7 L870.3,37.8 L871.0,37.3 L871.8,35.9 L872.5,36.3 L873.2,36.9 L874.0,36.7 L874.7,37.2 L875.5,37.3 L876.2,36.4 L876.9,35.8 L877.7,35.6 L878.4,34.3 L879.2,34.5 L879.9,34.6 L880.7,34.9 L881.4,34.0 L882.1,33.8 L882.9,32.4 L883.6,31.1 L884.4,31.1 L885.1,30.8 L885.8,31.3 L886.6,31.6 L887.3,31.7 L888.1,31.7 L888.8,31.5 L889.6,31.1 L890.3,30.7 L891.0,30.5 L891.8,29.3 L892.5,29.5 L893.3,29.4 L894.0,28.9 L894.8,29.1 L895.5,29.6 L896.2,30.0 L897.0,29.8 L897.7,30.2 L898.5,29.9 L899.2,30.3 L899.9,31.0 L900.7,31.4 L901.4,31.2 L902.2,30.8 L902.9,30.9 L903.7,31.2 L904.4,31.5 L905.1,30.1 L905.9,30.3 L906.6,30.5 L907.4,30.3 L908.1,30.6 L908.8,30.7 L909.6,30.3 L910.3,30.7 L911.1,29.6 L911.8,28.8 L912.6,29.4 L913.3,29.6 L914.0,28.8 L914.8,28.8 L915.5,29.0 L916.3,29.2 L917.0,29.0 L917.7,28.9 L918.5,28.9 L919.2,29.1 L920.0,29.5 L920.7,29.5 L921.5,29.6 L922.2,28.7 L922.9,28.9 L923.7,29.1 L924.4,29.1 L925.2,28.4 L925.9,27.4 L926.6,27.7 L927.4,26.1 L928.1,26.3 L928.9,26.7 L929.6,25.6 L930.4,25.2 L931.1,25.1 L931.8,25.5 L932.6,25.0 L933.3,24.8 L934.1,25.1 L934.8,25.3 L935.5,23.6 L936.3,23.7 L937.0,23.5 L937.8,23.4 L938.5,23.2 L939.3,23.3 L940.0,23.4"/>
<path class="s2" d="M58.0,262.2 L58.7,262.0 L59.5,262.0 L60.2,262.2 L61.0,262.2 L61.7,262.2 L62.5,262.2 L63.2,262.6 L63.9,262.6 L64.7,262.2 L65.4,262.2 L66.2,262.3 L66.9,262.3 L67.6,262.3 L68.4,262.3 L69.1,262.3 L69.9,262.5 L70.6,262.5 L71.4,262.5 L72.1,262.6 L72.8,262.6 L73.6,262.6 L74.3,262.6 L75.1,262.5 L75.8,262.3 L76.5,261.8 L77.3,261.8 L78.0,261.8 L78.8,261.8 L79.5,261.8 L80.3,261.8 L81.0,260.8 L81.7,260.8 L82.5,260.8 L83.2,260.7 L84.0,260.9 L84.7,261.2 L85.4,260.8 L86.2,260.8 L86.9,260.9 L87.7,260.8 L88.4,260.8 L89.2,260.8 L89.9,260.8 L90.6,260.7 L91.4,260.5 L92.1,260.5 L92.9,259.5 L93.6,259.2 L94.3,259.4 L95.1,259.4 L95.8,259.4 L96.6,259.4 L97.3,259.8 L98.1,260.0 L98.8,260.2 L99.5,260.2 L100.3,259.9 L101.0,260.5 L101.8,260.5 L102.5,260.7 L103.2,260.9 L104.0,261.1 L104.7,261.5 L105.5,261.5 L106.2,261.5 L107.0,261.3 L107.7,260.8 L108.4,259.9 L109.2,260.1 L109.9,260.1 L110.7,260.1 L111.4,259.4 L112.2,259.4 L112.9,258.3 L113.6,258.0 L114.4,257.1 L115.1,256.7 L115.9,256.7 L116.6,256.9 L117.3,257.4 L118.1,257.4 L118.8,257.4 L119.6,257.5 L120.3,257.6 L121.1,257.4 L121.8,257.4 L122.5,257.6 L123.3,258.0 L124.0,257.7 L124.8,257.7 L125.5,257.7 L126.2,257.5 L127.0,257.6 L127.7,257.6 L128.5,257.6 L129.2,257.1 L130.0,257.1 L130.7,257.3 L131.4,257.5 L132.2,257.6 L132.9,256.9 L133.7,256.9 L134.4,257.1 L135.1,257.4 L135.9,257.4 L136.6,257.4 L137.4,257.4 L138.1,257.2 L138.9,257.3 L139.6,257.2 L140.3,257.0 L141.1,257.1 L141.8,257.5 L142.6,257.7 L143.3,257.6 L144.0,257.5 L144.8,257.5 L145.5,257.7 L146.3,257.7 L147.0,257.4 L147.8,257.4 L148.5,257.4 L149.2,257.7 L150.0,257.7 L150.7,257.7 L151.5,257.7 L152.2,257.7 L153.0,257.7 L153.7,257.9 L154.4,258.1 L155.2,257.8 L155.9,257.8 L156.7,258.0 L157.4,258.0 L158.1,258.2 L158.9,257.9 L159.6,258.1 L160.4,258.1 L161.1,258.2 L161.9,257.5 L162.6,257.7 L163.3,257.7 L164.1,257.4 L164.8,257.4 L165.6,257.4 L166.3,257.4 L167.0,257.0 L167.8,257.2 L168.5,257.2 L169.3,257.4 L170.0,257.0 L170.8,257.0 L171.5,257.0 L172.2,257.0 L173.0,257.0 L173.7,257.0 L174.5,257.0 L175.2,257.0 L175.9,257.1 L176.7,257.3 L177.4,257.3 L178.2,257.3 L178.9,257.0 L179.7,257.0 L180.4,257.2 L181.1,257.4 L181.9,257.4 L182.6,257.4 L183.4,257.4 L184.1,257.8 L184.8,257.8 L185.6,257.6 L186.3,257.6 L187.1,257.6 L187.8,257.6 L188.6,257.3 L189.3,257.5 L190.0,257.7 L190.8,257.7 L191.5,257.7 L192.3,258.0 L193.0,257.9 L193.7,257.9 L194.5,258.1 L195.2,258.3 L196.0,258.5 L196.7,258.7 L197.5,258.9 L198.2,258.8 L198.9,258.7 L199.7,258.7 L200.4,258.7 L201.2,258.7 L201.9,258.2 L202.7,258.2 L203.4,258.2 L204.1,258.2 L204.9,258.6 L205.6,258.5 L206.4,258.7 L207.1,258.6 L207.8,258.6 L208.6,258.4 L209.3,258.4 L210.1,258.4 L210.8,258.6 L211.6,258.8 L212.3,258.8 L213.0,258.5 L213.8,258.2 L214.5,258.2 L215.3,258.0 L216.0,257.9 L216.7,258.1 L217.5,257.9 L218.2,258.1 L219.0,258.1 L219.7,258.5 L220.5,258.5 L221.2,258.5 L221.9,258.5 L222.7,257.1 L223.4,257.3 L224.2,257.3 L224.9,257.3 L225.6,257.3 L226.4,257.3 L227.1,257.3 L227.9,257.5 L228.6,257.5 L229.4,257.7 L230.1,257.9 L230.8,257.9 L231.6,258.1 L232.3,258.1 L233.1,258.1 L233.8,257.7 L234.5,258.1 L235.3,258.1 L236.0,258.0 L236.8,258.0 L237.5,258.0 L238.3,257.7 L239.0,257.8 L239.7,257.3 L240.5,257.3 L241.2,257.3 L242.0,257.5 L242.7,257.5 L243.4,257.4 L244.2,257.3 L244.9,257.0 L245.7,257.0 L246.4,257.3 L247.2,257.3 L247.9,257.3 L248.6,257.3 L249.4,256.7 L250.1,256.7 L250.9,256.7 L251.6,256.1 L252.4,256.1 L253.1,256.3 L253.8,256.3 L254.6,256.3 L255.3,255.7 L256.1,255.7 L256.8,255.7 L257.5,255.4 L258.3,255.6 L259.0,255.2 L259.8,255.2 L260.5,255.6 L261.3,255.8 L262.0,255.8 L262.7,255.0 L263.5,255.0 L264.2,255.0 L265.0,255.0 L265.7,255.0 L266.4,255.2 L267.2,254.2 L267.9,254.4 L268.7,254.1 L269.4,254.1 L270.2,254.1 L270.9,254.1 L271.6,254.1 L272.4,254.3 L273.1,254.5 L273.9,254.5 L274.6,254.2 L275.3,254.2 L276.1,253.1 L276.8,253.1 L277.6,253.3 L278.3,253.5 L279.1,253.5 L279.8,253.5 L280.5,253.5 L281.3,253.7 L282.0,252.9 L282.8,252.9 L283.5,253.0 L284.2,253.0 L285.0,252.2 L285.7,251.3 L286.5,251.3 L287.2,251.5 L288.0,251.5 L288.7,251.5 L289.4,251.4 L290.2,251.4 L290.9,251.4 L291.7,251.4 L292.4,251.6 L293.2,251.8 L293.9,251.8 L294.6,251.8 L295.4,251.8 L296.1,251.8 L296.9,251.5 L297.6,251.1 L298.3,251.1 L299.1,251.2 L299.8,251.4 L300.6,251.4 L301.3,251.6 L302.1,251.4 L302.8,251.4 L303.5,251.2 L304.3,251.2 L305.0,251.4 L305.8,251.1 L306.5,251.1 L307.2,251.3 L308.0,251.2 L308.7,251.4 L309.5,251.9 L310.2,252.3 L311.0,252.3 L311.7,252.5 L312.4,252.5 L313.2,252.3 L313.9,252.5 L314.7,252.5 L315.4,252.5 L316.1,252.5 L316.9,252.2 L317.6,252.2 L318.4,250.9 L319.1,251.0 L319.9,251.1 L320.6,250.5 L321.3,250.5 L322.1,249.8 L322.8,249.2 L323.6,248.7 L324.3,248.7 L325.0,248.7 L325.8,248.7 L326.5,248.0 L327.3,247.2 L328.0,247.4 L328.8,247.6 L329.5,247.6 L330.2,246.3 L331.0,246.0 L331.7,246.0 L332.5,246.0 L333.2,245.1 L333.9,245.1 L334.7,245.1 L335.4,244.8 L336.2,243.8 L336.9,243.7 L337.7,243.7 L338.4,243.4 L339.1,243.4 L339.9,243.4 L340.6,243.4 L341.4,243.4 L342.1,243.4 L342.9,243.4 L343.6,243.4 L344.3,243.1 L345.1,242.7 L345.8,242.7 L346.6,242.5 L347.3,242.2 L348.0,242.1 L348.8,242.1 L349.5,241.8 L350.3,242.0 L351.0,241.7 L351.8,241.9 L352.5,241.9 L353.2,241.9 L354.0,241.9 L354.7,242.1 L355.5,242.1 L356.2,242.3 L356.9,242.3 L357.7,242.3 L358.4,241.8 L359.2,241.7 L359.9,241.9 L360.7,241.9 L361.4,241.9 L362.1,242.0 L362.9,242.0 L363.6,242.2 L364.4,242.0 L365.1,242.0 L365.8,242.2 L366.6,242.2 L367.3,242.5 L368.1,242.2 L368.8,242.4 L369.6,242.4 L370.3,242.4 L371.0,242.1 L371.8,241.8 L372.5,241.8 L373.3,241.8 L374.0,242.2 L374.7,242.4 L375.5,242.4 L376.2,242.4 L377.0,242.1 L377.7,242.2 L378.5,240.6 L379.2,240.6 L379.9,240.6 L380.7,240.6 L381.4,239.9 L382.2,239.9 L382.9,239.9 L383.7,239.8 L384.4,239.8 L385.1,240.2 L385.9,240.2 L386.6,240.4 L387.4,240.4 L388.1,240.4 L388.8,240.8 L389.6,240.8 L390.3,240.8 L391.1,240.8 L391.8,240.8 L392.6,241.0 L393.3,240.5 L394.0,240.0 L394.8,239.9 L395.5,239.9 L396.3,239.9 L397.0,239.6 L397.7,239.5 L398.5,239.5 L399.2,239.7 L400.0,239.7 L400.7,239.7 L401.5,239.9 L402.2,240.1 L402.9,240.1 L403.7,240.3 L404.4,240.3 L405.2,239.5 L405.9,239.8 L406.6,240.2 L407.4,240.1 L408.1,240.0 L408.9,240.0 L409.6,240.0 L410.4,240.2 L411.1,240.4 L411.8,240.4 L412.6,240.4 L413.3,240.6 L414.1,240.3 L414.8,240.2 L415.5,239.9 L416.3,239.9 L417.0,239.5 L417.8,239.9 L418.5,240.1 L419.3,240.1 L420.0,240.5 L420.7,240.5 L421.5,240.2 L422.2,240.1 L423.0,240.1 L423.7,240.0 L424.4,240.0 L425.2,240.0 L425.9,240.2 L426.7,240.4 L427.4,240.6 L428.2,240.6 L428.9,240.4 L429.6,240.2 L430.4,240.2 L431.1,240.2 L431.9,240.0 L432.6,240.1 L433.4,240.3 L434.1,240.3 L434.8,240.3 L435.6,239.9 L436.3,240.1 L437.1,240.1 L437.8,240.1 L438.5,240.1 L439.3,240.1 L440.0,239.7 L440.8,239.8 L441.5,238.5 L442.3,238.5 L443.0,238.5 L443.7,238.5 L444.5,238.5 L445.2,238.5 L446.0,238.5 L446.7,238.5 L447.4,238.7 L448.2,238.4 L448.9,237.8 L449.7,237.9 L450.4,237.8 L451.2,237.6 L451.9,236.6 L452.6,236.5 L453.4,236.4 L454.1,236.4 L454.9,236.4 L455.6,236.6 L456.3,236.8 L457.1,237.0 L457.8,237.0 L458.6,237.2 L459.3,237.0 L460.1,237.1 L460.8,236.6 L461.5,236.9 L462.3,236.4 L463.0,236.4 L463.8,236.4 L464.5,236.2 L465.2,235.9 L466.0,235.7 L466.7,236.0 L467.5,236.0 L468.2,236.2 L469.0,236.4 L469.7,236.6 L470.4,236.8 L471.2,236.5 L471.9,236.2 L472.7,236.3 L473.4,236.3 L474.1,236.7 L474.9,235.5 L475.6,235.5 L476.4,235.5 L477.1,235.3 L477.9,235.3 L478.6,235.5 L479.3,235.8 L480.1,235.8 L480.8,236.0 L481.6,236.0 L482.3,235.9 L483.1,235.1 L483.8,235.1 L484.5,235.1 L485.3,235.5 L486.0,235.3 L486.8,235.3 L487.5,235.5 L488.2,235.2 L489.0,235.0 L489.7,235.0 L490.5,235.0 L491.2,235.2 L492.0,235.2 L492.7,235.2 L493.4,235.2 L494.2,233.9 L494.9,233.9 L495.7,233.9 L496.4,233.9 L497.1,233.9 L497.9,234.0 L498.6,233.8 L499.4,233.5 L500.1,233.4 L500.9,233.6 L501.6,234.0 L502.3,234.0 L503.1,234.2 L503.8,234.2 L504.6,234.2 L505.3,234.2 L506.0,234.4 L506.8,234.5 L507.5,234.5 L508.3,234.5 L509.0,233.7 L509.8,232.9 L510.5,232.2 L511.2,231.5 L512.0,231.0 L512.7,231.2 L513.5,231.2 L514.2,231.4 L514.9,231.4 L515.7,231.4 L516.4,231.4 L517.2,231.4 L517.9,231.4 L518.7,231.6 L519.4,231.6 L520.1,231.8 L520.9,231.6 L521.6,231.6 L522.4,231.4 L523.1,231.4 L523.9,231.4 L524.6,231.4 L525.3,231.4 L526.1,231.4 L526.8,231.4 L527.6,231.4 L528.3,231.4 L529.0,231.4 L529.8,231.4 L530.5,231.3 L531.3,231.3 L532.0,231.3 L532.8,231.3 L533.5,231.3 L534.2,231.3 L535.0,231.3 L535.7,231.3 L536.5,231.3 L537.2,230.8 L537.9,230.7 L538.7,230.4 L539.4,230.4 L540.2,230.4 L540.9,230.4 L541.7,230.1 L542.4,230.1 L543.1,230.1 L543.9,230.1 L544.6,230.2 L545.4,230.4 L546.1,230.3 L546.8,230.3 L547.6,230.3 L548.3,230.3 L549.1,230.5 L549.8,230.5 L550.6,230.6 L551.3,230.6 L552.0,230.6 L552.8,230.6 L553.5,230.5 L554.3,230.7 L555.0,230.7 L555.7,229.8 L556.5,229.0 L557.2,229.0 L558.0,229.0 L558.7,229.0 L559.5,229.0 L560.2,229.0 L560.9,228.2 L561.7,228.3 L562.4,228.5 L563.2,228.6 L563.9,228.8 L564.6,227.6 L565.4,227.6 L566.1,227.6 L566.9,227.6 L567.6,228.0 L568.4,226.7 L569.1,226.8 L569.8,227.0 L570.6,226.7 L571.3,226.7 L572.1,226.5 L572.8,226.5 L573.6,226.7 L574.3,226.0 L575.0,226.0 L575.8,226.0 L576.5,226.0 L577.3,226.0 L578.0,226.0 L578.7,226.0 L579.5,226.0 L580.2,226.0 L581.0,225.9 L581.7,225.9 L582.5,225.9 L583.2,225.9 L583.9,225.9 L584.7,225.9 L585.4,225.9 L586.2,225.9 L586.9,225.9 L587.6,225.7 L588.4,225.9 L589.1,225.9 L589.9,225.9 L590.6,225.9 L591.4,226.1 L592.1,226.3 L592.8,226.0 L593.6,225.7 L594.3,225.2 L595.1,225.4 L595.8,225.4 L596.5,225.4 L597.3,225.4 L598.0,225.5 L598.8,225.5 L599.5,225.5 L600.3,225.5 L601.0,225.5 L601.7,225.7 L602.5,225.7 L603.2,226.0 L604.0,226.0 L604.7,226.2 L605.4,226.4 L606.2,226.6 L606.9,226.6 L607.7,226.6 L608.4,226.8 L609.2,227.0 L609.9,227.0 L610.6,227.0 L611.4,227.0 L612.1,227.2 L612.9,227.2 L613.6,227.3 L614.3,227.5 L615.1,227.7 L615.8,227.5 L616.6,227.5 L617.3,227.1 L618.1,225.5 L618.8,225.5 L619.5,225.5 L620.3,225.7 L621.0,225.9 L621.8,225.9 L622.5,225.5 L623.3,224.6 L624.0,224.5 L624.7,224.5 L625.5,224.5 L626.2,224.5 L627.0,224.5 L627.7,224.8 L628.4,224.8 L629.2,225.0 L629.9,224.7 L630.7,224.4 L631.4,224.1 L632.2,224.1 L632.9,223.9 L633.6,223.7 L634.4,223.7 L635.1,223.9 L635.9,223.9 L636.6,224.1 L637.3,224.4 L638.1,224.4 L638.8,224.6 L639.6,224.6 L640.3,224.3 L641.1,224.3 L641.8,224.3 L642.5,224.3 L643.3,224.3 L644.0,224.3 L644.8,224.0 L645.5,224.2 L646.2,224.2 L647.0,224.3 L647.7,224.3 L648.5,223.9 L649.2,223.9 L650.0,223.9 L650.7,223.9 L651.4,223.9 L652.2,223.9 L652.9,223.3 L653.7,223.5 L654.4,223.5 L655.1,223.5 L655.9,223.2 L656.6,223.2 L657.4,223.4 L658.1,223.4 L658.9,223.4 L659.6,223.6 L660.3,223.4 L661.1,223.4 L661.8,223.3 L662.6,222.9 L663.3,222.9 L664.1,222.8 L664.8,222.7 L665.5,222.7 L666.3,222.5 L667.0,222.6 L667.8,222.7 L668.5,222.4 L669.2,222.4 L670.0,222.6 L670.7,222.6 L671.5,222.4 L672.2,222.4 L673.0,222.4 L673.7,222.4 L674.4,222.6 L675.2,222.6 L675.9,222.7 L676.7,222.9 L677.4,222.9 L678.1,222.5 L678.9,222.5 L679.6,222.7 L680.4,222.7 L681.1,223.1 L681.9,223.1 L682.6,222.9 L683.3,221.9 L684.1,221.9 L684.8,222.1 L685.6,222.1 L686.3,222.5 L687.0,222.5 L687.8,222.2 L688.5,222.2 L689.3,222.2 L690.0,222.2 L690.8,222.4 L691.5,222.4 L692.2,222.1 L693.0,221.7 L693.7,221.7 L694.5,221.7 L695.2,221.7 L695.9,221.7 L696.7,221.4 L697.4,221.0 L698.2,221.2 L698.9,221.2 L699.7,221.2 L700.4,221.2 L701.1,221.2 L701.9,221.4 L702.6,221.4 L703.4,221.4 L704.1,221.4 L704.8,221.4 L705.6,221.4 L706.3,221.7 L707.1,221.6 L707.8,221.6 L708.6,221.9 L709.3,221.9 L710.0,221.9 L710.8,221.9 L711.5,221.7 L712.3,221.7 L713.0,221.7 L713.8,221.5 L714.5,221.7 L715.2,221.4 L716.0,221.4 L716.7,221.4 L717.5,221.2 L718.2,221.2 L718.9,221.0 L719.7,221.0 L720.4,221.0 L721.2,220.7 L721.9,220.7 L722.7,220.9 L723.4,221.1 L724.1,220.5 L724.9,220.5 L725.6,220.5 L726.4,220.5 L727.1,220.5 L727.8,220.7 L728.6,220.7 L729.3,221.0 L730.1,220.9 L730.8,220.5 L731.6,220.3 L732.3,220.1 L733.0,220.1 L733.8,220.1 L734.5,220.1 L735.3,220.1 L736.0,220.1 L736.7,219.7 L737.5,219.7 L738.2,219.7 L739.0,219.7 L739.7,219.7 L740.5,219.9 L741.2,219.3 L741.9,219.4 L742.7,219.4 L743.4,219.3 L744.2,218.9 L744.9,219.2 L745.6,219.4 L746.4,219.4 L747.1,219.6 L747.9,219.2 L748.6,218.8 L749.4,219.0 L750.1,218.8 L750.8,218.8 L751.6,218.8 L752.3,218.8 L753.1,219.2 L753.8,219.4 L754.6,219.4 L755.3,219.4 L756.0,219.4 L756.8,219.4 L757.5,219.4 L758.3,219.7 L759.0,219.9 L759.7,219.9 L760.5,219.9 L761.2,219.7 L762.0,219.9 L762.7,219.9 L763.5,219.9 L764.2,220.1 L764.9,220.3 L765.7,220.7 L766.4,220.7 L767.2,219.8 L767.9,219.8 L768.6,219.5 L769.4,219.1 L770.1,219.1 L770.9,219.1 L771.6,218.8 L772.4,218.8 L773.1,218.8 L773.8,218.5 L774.6,218.6 L775.3,218.6 L776.1,218.8 L776.8,218.8 L777.5,218.8 L778.3,218.6 L779.0,218.8 L779.8,219.2 L780.5,218.0 L781.3,218.2 L782.0,218.2 L782.7,218.0 L783.5,218.0 L784.2,218.0 L785.0,218.0 L785.7,218.2 L786.4,218.0 L787.2,217.7 L787.9,217.7 L788.7,217.7 L789.4,217.8 L790.2,218.0 L790.9,218.0 L791.6,218.0 L792.4,217.9 L793.1,217.9 L793.9,217.9 L794.6,217.6 L795.3,217.6 L796.1,217.3 L796.8,217.3 L797.6,216.9 L798.3,217.3 L799.1,217.5 L799.8,217.5 L800.5,217.5 L801.3,217.5 L802.0,217.5 L802.8,217.5 L803.5,217.5 L804.3,216.8 L805.0,216.8 L805.7,216.4 L806.5,216.5 L807.2,216.2 L808.0,215.5 L808.7,215.5 L809.4,215.5 L810.2,215.3 L810.9,215.7 L811.7,215.7 L812.4,216.1 L813.2,216.1 L813.9,216.3 L814.6,216.3 L815.4,215.5 L816.1,215.2 L816.9,215.0 L817.6,215.3 L818.3,215.2 L819.1,215.2 L819.8,214.0 L820.6,214.0 L821.3,214.0 L822.1,214.0 L822.8,214.0 L823.5,213.6 L824.3,212.5 L825.0,212.5 L825.8,212.5 L826.5,212.5 L827.2,212.2 L828.0,212.5 L828.7,212.5 L829.5,212.5 L830.2,211.8 L831.0,211.8 L831.7,211.9 L832.4,211.9 L833.2,211.5 L833.9,211.5 L834.7,211.5 L835.4,211.5 L836.1,211.5 L836.9,211.6 L837.6,211.5 L838.4,211.5 L839.1,211.5 L839.9,211.5 L840.6,211.5 L841.3,211.5 L842.1,211.7 L842.8,211.7 L843.6,211.0 L844.3,211.2 L845.0,210.9 L845.8,211.0 L846.5,211.0 L847.3,211.0 L848.0,209.9 L848.8,209.9 L849.5,209.3 L850.2,209.3 L851.0,209.3 L851.7,209.1 L852.5,209.4 L853.2,209.2 L854.0,209.2 L854.7,209.3 L855.4,209.3 L856.2,209.3 L856.9,209.3 L857.7,209.3 L858.4,209.3 L859.1,209.3 L859.9,209.3 L860.6,209.3 L861.4,209.3 L862.1,209.3 L862.9,209.3 L863.6,209.0 L864.3,209.0 L865.1,209.0 L865.8,208.7 L866.6,208.7 L867.3,208.7 L868.0,208.4 L868.8,208.4 L869.5,208.4 L870.3,208.6 L871.0,208.6 L871.8,208.6 L872.5,208.6 L873.2,208.6 L874.0,208.3 L874.7,208.3 L875.5,208.4 L876.2,208.4 L876.9,208.4 L877.7,208.2 L878.4,208.2 L879.2,208.2 L879.9,208.1 L880.7,208.1 L881.4,208.1 L882.1,208.1 L882.9,208.1 L883.6,208.1 L884.4,208.2 L885.1,208.2 L885.8,208.6 L886.6,208.6 L887.3,208.6 L888.1,208.5 L888.8,208.5 L889.6,208.2 L890.3,208.4 L891.0,208.4 L891.8,208.1 L892.5,207.8 L893.3,207.8 L894.0,207.8 L894.8,208.1 L895.5,208.1 L896.2,208.3 L897.0,208.3 L897.7,207.7 L898.5,207.9 L899.2,207.7 L899.9,207.9 L900.7,208.1 L901.4,208.3 L902.2,208.5 L902.9,208.4 L903.7,208.5 L904.4,208.5 L905.1,208.5 L905.9,208.5 L906.6,208.5 L907.4,208.3 L908.1,208.4 L908.8,208.4 L909.6,208.6 L910.3,208.8 L911.1,209.0 L911.8,209.0 L912.6,209.2 L913.3,209.2 L914.0,209.6 L914.8,209.8 L915.5,209.8 L916.3,210.0 L917.0,210.3 L917.7,210.3 L918.5,210.3 L919.2,210.3 L920.0,210.3 L920.7,210.1 L921.5,210.2 L922.2,210.3 L922.9,210.3 L923.7,210.3 L924.4,210.3 L925.2,210.0 L925.9,209.1 L926.6,209.1 L927.4,209.1 L928.1,209.1 L928.9,209.3 L929.6,209.3 L930.4,209.7 L931.1,209.5 L931.8,209.7 L932.6,209.9 L933.3,209.9 L934.1,209.9 L934.8,209.9 L935.5,209.9 L936.3,209.9 L937.0,209.9 L937.8,209.9 L938.5,209.9 L939.3,209.9 L940.0,209.9"/>
<path class="s1" d="M58.0,261.8 L58.7,262.0 L59.5,261.5 L60.2,262.0 L61.0,262.2 L61.7,262.0 L62.5,261.9 L63.2,262.1 L63.9,262.1 L64.7,260.6 L65.4,261.0 L66.2,261.0 L66.9,260.6 L67.6,259.5 L68.4,259.1 L69.1,258.5 L69.9,258.6 L70.6,258.6 L71.4,259.0 L72.1,258.1 L72.8,258.5 L73.6,258.2 L74.3,256.7 L75.1,256.3 L75.8,255.5 L76.5,255.6 L77.3,255.1 L78.0,253.9 L78.8,254.4 L79.5,254.3 L80.3,254.4 L81.0,255.3 L81.7,255.3 L82.5,255.5 L83.2,255.5 L84.0,255.8 L84.7,255.8 L85.4,256.0 L86.2,254.6 L86.9,254.6 L87.7,255.0 L88.4,254.7 L89.2,254.4 L89.9,254.5 L90.6,254.8 L91.4,254.6 L92.1,254.4 L92.9,252.7 L93.6,252.9 L94.3,253.1 L95.1,252.7 L95.8,253.4 L96.6,253.6 L97.3,253.6 L98.1,253.6 L98.8,252.9 L99.5,253.1 L100.3,253.3 L101.0,252.6 L101.8,252.8 L102.5,252.7 L103.2,252.8 L104.0,253.2 L104.7,252.8 L105.5,253.7 L106.2,252.7 L107.0,252.9 L107.7,251.9 L108.4,252.1 L109.2,252.3 L109.9,252.1 L110.7,252.3 L111.4,251.8 L112.2,250.0 L112.9,250.0 L113.6,250.0 L114.4,250.3 L115.1,250.3 L115.9,250.9 L116.6,250.7 L117.3,249.4 L118.1,249.8 L118.8,249.1 L119.6,249.3 L120.3,249.5 L121.1,249.5 L121.8,249.1 L122.5,249.1 L123.3,249.1 L124.0,249.2 L124.8,248.7 L125.5,249.1 L126.2,249.6 L127.0,249.8 L127.7,250.3 L128.5,250.4 L129.2,250.9 L130.0,250.7 L130.7,250.5 L131.4,250.8 L132.2,251.0 L132.9,250.6 L133.7,251.4 L134.4,251.7 L135.1,251.0 L135.9,251.2 L136.6,252.3 L137.4,251.7 L138.1,251.9 L138.9,252.0 L139.6,247.9 L140.3,247.9 L141.1,248.1 L141.8,248.1 L142.6,247.4 L143.3,247.4 L144.0,247.0 L144.8,247.4 L145.5,247.2 L146.3,247.0 L147.0,247.9 L147.8,248.2 L148.5,248.8 L149.2,249.6 L150.0,248.2 L150.7,248.3 L151.5,247.6 L152.2,247.5 L153.0,247.7 L153.7,248.3 L154.4,247.2 L155.2,246.3 L155.9,245.6 L156.7,245.2 L157.4,244.3 L158.1,244.7 L158.9,244.7 L159.6,244.2 L160.4,244.6 L161.1,244.6 L161.9,244.6 L162.6,243.2 L163.3,243.3 L164.1,243.5 L164.8,243.9 L165.6,244.3 L166.3,245.0 L167.0,244.3 L167.8,244.7 L168.5,244.1 L169.3,244.3 L170.0,243.9 L170.8,243.9 L171.5,244.0 L172.2,244.3 L173.0,244.3 L173.7,244.5 L174.5,243.2 L175.2,243.5 L175.9,242.2 L176.7,242.4 L177.4,242.4 L178.2,242.9 L178.9,242.6 L179.7,240.6 L180.4,240.2 L181.1,239.8 L181.9,238.5 L182.6,238.5 L183.4,238.7 L184.1,238.6 L184.8,239.2 L185.6,239.9 L186.3,240.3 L187.1,240.4 L187.8,240.0 L188.6,239.3 L189.3,238.6 L190.0,239.5 L190.8,238.5 L191.5,238.7 L192.3,238.9 L193.0,238.5 L193.7,238.7 L194.5,239.0 L195.2,239.0 L196.0,239.2 L196.7,239.2 L197.5,239.7 L198.2,239.7 L198.9,239.2 L199.7,238.4 L200.4,237.8 L201.2,238.0 L201.9,238.0 L202.7,237.2 L203.4,236.8 L204.1,237.0 L204.9,236.0 L205.6,236.3 L206.4,236.3 L207.1,236.5 L207.8,236.9 L208.6,236.9 L209.3,237.3 L210.1,236.2 L210.8,235.8 L211.6,235.6 L212.3,235.0 L213.0,235.4 L213.8,236.0 L214.5,236.7 L215.3,237.1 L216.0,237.1 L216.7,237.7 L217.5,237.9 L218.2,238.6 L219.0,238.6 L219.7,237.2 L220.5,236.5 L221.2,236.7 L221.9,236.9 L222.7,236.9 L223.4,235.8 L224.2,236.2 L224.9,236.5 L225.6,237.1 L226.4,237.1 L227.1,237.3 L227.9,237.0 L228.6,237.2 L229.4,235.9 L230.1,236.8 L230.8,236.3 L231.6,236.2 L232.3,236.4 L233.1,236.6 L233.8,237.3 L234.5,237.3 L235.3,237.3 L236.0,237.9 L236.8,237.5 L237.5,237.7 L238.3,236.7 L239.0,236.7 L239.7,235.5 L240.5,234.5 L241.2,234.7 L242.0,235.3 L242.7,235.5 L243.4,236.0 L244.2,234.8 L244.9,234.8 L245.7,235.2 L246.4,235.6 L247.2,235.4 L247.9,235.1 L248.6,234.1 L249.4,234.3 L250.1,234.7 L250.9,235.3 L251.6,235.5 L252.4,235.9 L253.1,235.5 L253.8,234.1 L254.6,233.9 L255.3,233.9 L256.1,233.4 L256.8,231.7 L257.5,231.9 L258.3,232.1 L259.0,231.9 L259.8,231.7 L260.5,231.6 L261.3,231.5 L262.0,231.7 L262.7,230.3 L263.5,230.2 L264.2,230.3 L265.0,230.6 L265.7,229.1 L266.4,230.2 L267.2,229.4 L267.9,229.6 L268.7,229.4 L269.4,229.6 L270.2,229.8 L270.9,230.5 L271.6,230.5 L272.4,230.3 L273.1,230.3 L273.9,229.9 L274.6,229.6 L275.3,229.7 L276.1,230.2 L276.8,230.0 L277.6,229.5 L278.3,229.9 L279.1,230.1 L279.8,229.7 L280.5,229.9 L281.3,229.9 L282.0,229.9 L282.8,230.1 L283.5,230.3 L284.2,230.5 L285.0,230.5 L285.7,230.9 L286.5,230.5 L287.2,230.5 L288.0,230.1 L288.7,230.3 L289.4,230.1 L290.2,229.5 L290.9,229.1 L291.7,229.3 L292.4,229.5 L293.2,229.5 L293.9,230.0 L294.6,229.6 L295.4,227.0 L296.1,227.3 L296.9,227.3 L297.6,226.6 L298.3,225.8 L299.1,225.1 L299.8,224.7 L300.6,223.4 L301.3,223.8 L302.1,223.4 L302.8,223.6 L303.5,223.6 L304.3,221.8 L305.0,221.2 L305.8,221.4 L306.5,221.8 L307.2,220.9 L308.0,220.9 L308.7,220.8 L309.5,221.3 L310.2,221.5 L311.0,220.6 L311.7,221.0 L312.4,221.0 L313.2,221.4 L313.9,221.6 L314.7,221.9 L315.4,222.1 L316.1,222.5 L316.9,223.0 L317.6,222.8 L318.4,223.2 L319.1,220.8 L319.9,221.0 L320.6,221.5 L321.3,221.7 L322.1,222.0 L322.8,222.0 L323.6,222.0 L324.3,221.8 L325.0,221.8 L325.8,222.0 L326.5,222.1 L327.3,222.3 L328.0,222.7 L328.8,222.9 L329.5,223.3 L330.2,223.8 L331.0,224.0 L331.7,223.5 L332.5,223.1 L333.2,223.3 L333.9,222.1 L334.7,222.5 L335.4,222.7 L336.2,223.1 L336.9,223.8 L337.7,224.2 L338.4,222.7 L339.1,222.9 L339.9,222.5 L340.6,222.3 L341.4,222.5 L342.1,222.9 L342.9,223.1 L343.6,223.1 L344.3,223.1 L345.1,223.3 L345.8,222.7 L346.6,222.9 L347.3,223.1 L348.0,222.9 L348.8,222.7 L349.5,222.5 L350.3,221.9 L351.0,222.2 L351.8,222.4 L352.5,221.2 L353.2,221.5 L354.0,221.7 L354.7,221.7 L355.5,223.0 L356.2,223.0 L356.9,222.6 L357.7,222.2 L358.4,220.2 L359.2,220.5 L359.9,221.1 L360.7,221.2 L361.4,221.0 L362.1,220.8 L362.9,221.0 L363.6,221.3 L364.4,221.7 L365.1,222.0 L365.8,221.6 L366.6,221.8 L367.3,222.1 L368.1,221.9 L368.8,221.0 L369.6,221.3 L370.3,221.5 L371.0,221.1 L371.8,219.3 L372.5,219.5 L373.3,219.7 L374.0,219.9 L374.7,219.1 L375.5,219.3 L376.2,219.5 L377.0,219.8 L377.7,220.0 L378.5,220.2 L379.2,219.8 L379.9,220.1 L380.7,220.3 L381.4,220.5 L382.2,219.9 L382.9,219.7 L383.7,220.1 L384.4,220.6 L385.1,220.8 L385.9,220.8 L386.6,220.1 L387.4,220.1 L388.1,220.4 L388.8,219.2 L389.6,219.4 L390.3,218.8 L391.1,218.6 L391.8,218.6 L392.6,218.8 L393.3,217.9 L394.0,217.3 L394.8,218.0 L395.5,217.5 L396.3,216.7 L397.0,216.5 L397.7,216.7 L398.5,216.3 L399.2,216.3 L400.0,216.7 L400.7,217.1 L401.5,217.0 L402.2,217.6 L402.9,217.2 L403.7,217.4 L404.4,214.0 L405.2,213.6 L405.9,213.6 L406.6,212.8 L407.4,213.0 L408.1,213.0 L408.9,213.4 L409.6,213.6 L410.4,213.3 L411.1,212.4 L411.8,212.4 L412.6,212.6 L413.3,212.4 L414.1,212.8 L414.8,213.1 L415.5,212.9 L416.3,211.9 L417.0,212.1 L417.8,210.5 L418.5,210.6 L419.3,209.3 L420.0,209.4 L420.7,209.2 L421.5,209.4 L422.2,209.4 L423.0,209.6 L423.7,210.0 L424.4,210.0 L425.2,209.4 L425.9,209.4 L426.7,208.2 L427.4,208.6 L428.2,208.8 L428.9,207.9 L429.6,208.4 L430.4,207.7 L431.1,207.9 L431.9,208.1 L432.6,208.0 L433.4,207.3 L434.1,207.2 L434.8,207.9 L435.6,208.5 L436.3,208.2 L437.1,207.7 L437.8,208.1 L438.5,208.4 L439.3,209.5 L440.0,209.7 L440.8,208.9 L441.5,209.1 L442.3,208.7 L443.0,209.2 L443.7,208.1 L444.5,208.5 L445.2,208.9 L446.0,207.6 L446.7,206.7 L447.4,206.7 L448.2,207.4 L448.9,206.0 L449.7,205.8 L450.4,203.9 L451.2,204.3 L451.9,204.5 L452.6,204.9 L453.4,204.5 L454.1,203.3 L454.9,203.3 L455.6,203.1 L456.3,203.3 L457.1,203.3 L457.8,201.8 L458.6,201.4 L459.3,201.7 L460.1,201.5 L460.8,201.7 L461.5,201.7 L462.3,201.5 L463.0,200.3 L463.8,200.5 L464.5,201.0 L465.2,201.2 L466.0,201.4 L466.7,201.0 L467.5,201.2 L468.2,201.6 L469.0,201.9 L469.7,201.3 L470.4,200.2 L471.2,200.2 L471.9,199.8 L472.7,200.0 L473.4,199.4 L474.1,199.0 L474.9,198.8 L475.6,200.1 L476.4,199.8 L477.1,199.8 L477.9,200.0 L478.6,200.2 L479.3,200.4 L480.1,200.7 L480.8,200.7 L481.6,200.5 L482.3,200.7 L483.1,200.5 L483.8,200.9 L484.5,201.1 L485.3,201.1 L486.0,200.0 L486.8,200.2 L487.5,200.2 L488.2,199.1 L489.0,197.8 L489.7,197.2 L490.5,195.3 L491.2,195.8 L492.0,195.7 L492.7,195.9 L493.4,196.0 L494.2,195.9 L494.9,195.3 L495.7,194.7 L496.4,194.5 L497.1,194.6 L497.9,193.7 L498.6,194.0 L499.4,193.8 L500.1,194.3 L500.9,194.3 L501.6,193.9 L502.3,194.3 L503.1,194.3 L503.8,194.1 L504.6,194.7 L505.3,195.2 L506.0,195.0 L506.8,195.0 L507.5,195.2 L508.3,195.2 L509.0,194.7 L509.8,194.8 L510.5,195.3 L511.2,195.6 L512.0,195.9 L512.7,196.1 L513.5,194.7 L514.2,194.7 L514.9,194.7 L515.7,194.5 L516.4,194.7 L517.2,195.4 L517.9,195.8 L518.7,196.0 L519.4,195.6 L520.1,195.6 L520.9,195.4 L521.6,194.6 L522.4,194.8 L523.1,194.7 L523.9,193.9 L524.6,194.1 L525.3,194.5 L526.1,193.8 L526.8,194.1 L527.6,194.0 L528.3,193.3 L529.0,193.7 L529.8,194.4 L530.5,192.8 L531.3,192.9 L532.0,193.1 L532.8,193.3 L533.5,192.6 L534.2,192.7 L535.0,193.3 L535.7,193.7 L536.5,193.0 L537.2,192.7 L537.9,193.2 L538.7,192.7 L539.4,191.8 L540.2,192.0 L540.9,192.2 L541.7,191.9 L542.4,191.0 L543.1,191.2 L543.9,191.4 L544.6,191.4 L545.4,191.6 L546.1,191.6 L546.8,192.0 L547.6,192.2 L548.3,192.4 L549.1,192.6 L549.8,192.0 L550.6,191.1 L551.3,189.7 L552.0,189.6 L552.8,189.9 L553.5,189.1 L554.3,188.4 L555.0,187.8 L555.7,186.7 L556.5,186.6 L557.2,185.9 L558.0,185.2 L558.7,185.2 L559.5,185.5 L560.2,185.7 L560.9,186.2 L561.7,184.9 L562.4,184.5 L563.2,184.1 L563.9,184.5 L564.6,184.5 L565.4,184.7 L566.1,185.0 L566.9,184.1 L567.6,184.3 L568.4,184.3 L569.1,182.0 L569.8,182.0 L570.6,181.6 L571.3,181.4 L572.1,181.6 L572.8,179.6 L573.6,179.8 L574.3,180.5 L575.0,179.9 L575.8,180.1 L576.5,179.0 L577.3,179.3 L578.0,179.4 L578.7,179.6 L579.5,178.9 L580.2,178.7 L581.0,178.9 L581.7,179.4 L582.5,179.8 L583.2,178.1 L583.9,178.5 L584.7,178.9 L585.4,178.8 L586.2,178.8 L586.9,178.8 L587.6,179.4 L588.4,179.3 L589.1,180.0 L589.9,180.4 L590.6,180.6 L591.4,180.4 L592.1,180.6 L592.8,180.6 L593.6,180.4 L594.3,180.0 L595.1,179.9 L595.8,180.2 L596.5,180.6 L597.3,180.8 L598.0,181.0 L598.8,180.5 L599.5,180.8 L600.3,180.8 L601.0,180.6 L601.7,181.0 L602.5,180.9 L603.2,180.9 L604.0,180.1 L604.7,178.8 L605.4,177.7 L606.2,177.9 L606.9,178.1 L607.7,177.7 L608.4,177.7 L609.2,177.9 L609.9,177.4 L610.6,177.1 L611.4,177.1 L612.1,176.4 L612.9,176.4 L613.6,176.8 L614.3,177.4 L615.1,175.9 L615.8,174.9 L616.6,175.1 L617.3,174.0 L618.1,173.6 L618.8,173.8 L619.5,174.6 L620.3,174.2 L621.0,174.0 L621.8,172.9 L622.5,172.7 L623.3,173.1 L624.0,173.1 L624.7,173.3 L625.5,173.0 L626.2,173.3 L627.0,173.7 L627.7,173.7 L628.4,174.1 L629.2,174.1 L629.9,174.4 L630.7,173.5 L631.4,173.5 L632.2,173.5 L632.9,173.5 L633.6,174.2 L634.4,174.2 L635.1,174.9 L635.9,175.1 L636.6,173.5 L637.3,173.5 L638.1,172.9 L638.8,173.1 L639.6,173.3 L640.3,172.6 L641.1,172.2 L641.8,171.3 L642.5,170.7 L643.3,171.1 L644.0,170.9 L644.8,171.3 L645.5,171.6 L646.2,171.8 L647.0,171.8 L647.7,171.8 L648.5,171.9 L649.2,171.3 L650.0,171.3 L650.7,171.7 L651.4,170.6 L652.2,170.8 L652.9,169.9 L653.7,169.1 L654.4,169.5 L655.1,169.8 L655.9,169.8 L656.6,170.0 L657.4,170.2 L658.1,169.8 L658.9,170.0 L659.6,169.8 L660.3,170.3 L661.1,170.5 L661.8,170.5 L662.6,170.5 L663.3,171.3 L664.1,171.7 L664.8,170.0 L665.5,170.0 L666.3,169.9 L667.0,170.3 L667.8,170.8 L668.5,170.8 L669.2,170.5 L670.0,169.3 L670.7,169.5 L671.5,168.7 L672.2,169.1 L673.0,168.2 L673.7,168.9 L674.4,167.6 L675.2,167.4 L675.9,167.6 L676.7,168.0 L677.4,167.8 L678.1,166.2 L678.9,166.2 L679.6,166.4 L680.4,166.6 L681.1,166.8 L681.9,166.6 L682.6,166.6 L683.3,166.8 L684.1,167.2 L684.8,165.6 L685.6,164.6 L686.3,164.4 L687.0,163.5 L687.8,163.2 L688.5,162.8 L689.3,162.3 L690.0,162.5 L690.8,162.7 L691.5,162.8 L692.2,162.1 L693.0,161.9 L693.7,161.3 L694.5,161.1 L695.2,161.1 L695.9,160.2 L696.7,159.9 L697.4,160.2 L698.2,159.8 L698.9,160.5 L699.7,161.3 L700.4,161.6 L701.1,160.2 L701.9,160.4 L702.6,160.3 L703.4,161.6 L704.1,161.8 L704.8,161.8 L705.6,161.0 L706.3,161.2 L707.1,159.9 L707.8,159.9 L708.6,159.4 L709.3,159.2 L710.0,156.9 L710.8,157.1 L711.5,157.3 L712.3,157.5 L713.0,157.7 L713.8,156.3 L714.5,156.5 L715.2,156.5 L716.0,155.0 L716.7,155.6 L717.5,155.8 L718.2,155.8 L718.9,156.0 L719.7,156.7 L720.4,156.9 L721.2,155.7 L721.9,156.0 L722.7,156.2 L723.4,156.2 L724.1,156.2 L724.9,156.6 L725.6,156.6 L726.4,157.0 L727.1,157.5 L727.8,157.1 L728.6,156.6 L729.3,156.8 L730.1,156.8 L730.8,157.1 L731.6,157.1 L732.3,157.8 L733.0,157.4 L733.8,157.9 L734.5,158.1 L735.3,158.0 L736.0,157.0 L736.7,156.9 L737.5,157.0 L738.2,155.9 L739.0,155.7 L739.7,155.5 L740.5,155.5 L741.2,154.1 L741.9,153.9 L742.7,152.6 L743.4,150.9 L744.2,150.9 L744.9,150.9 L745.6,150.7 L746.4,151.2 L747.1,151.7 L747.9,151.7 L748.6,151.9 L749.4,152.1 L750.1,152.1 L750.8,152.3 L751.6,152.8 L752.3,152.6 L753.1,152.6 L753.8,152.3 L754.6,152.7 L755.3,150.7 L756.0,150.9 L756.8,150.8 L757.5,150.8 L758.3,149.9 L759.0,149.9 L759.7,149.0 L760.5,147.9 L761.2,148.1 L762.0,147.9 L762.7,148.2 L763.5,148.4 L764.2,148.4 L764.9,148.4 L765.7,147.0 L766.4,147.0 L767.2,146.6 L767.9,146.8 L768.6,146.3 L769.4,146.7 L770.1,147.1 L770.9,147.0 L771.6,147.2 L772.4,146.3 L773.1,146.7 L773.8,147.1 L774.6,146.3 L775.3,145.7 L776.1,146.6 L776.8,147.2 L777.5,147.6 L778.3,147.8 L779.0,148.2 L779.8,147.7 L780.5,147.9 L781.3,148.7 L782.0,147.7 L782.7,147.9 L783.5,147.5 L784.2,147.8 L785.0,148.0 L785.7,147.1 L786.4,146.7 L787.2,146.1 L787.9,145.9 L788.7,145.7 L789.4,145.8 L790.2,146.2 L790.9,146.2 L791.6,147.1 L792.4,144.9 L793.1,145.1 L793.9,145.2 L794.6,144.3 L795.3,145.0 L796.1,145.0 L796.8,143.2 L797.6,143.2 L798.3,143.3 L799.1,141.3 L799.8,140.8 L800.5,140.8 L801.3,141.0 L802.0,140.7 L802.8,140.5 L803.5,141.0 L804.3,140.8 L805.0,141.0 L805.7,141.1 L806.5,141.5 L807.2,139.2 L808.0,139.4 L808.7,137.7 L809.4,138.2 L810.2,138.0 L810.9,138.4 L811.7,137.5 L812.4,136.9 L813.2,137.0 L813.9,137.2 L814.6,137.8 L815.4,137.8 L816.1,137.7 L816.9,137.9 L817.6,137.4 L818.3,137.6 L819.1,137.2 L819.8,137.2 L820.6,136.6 L821.3,136.8 L822.1,137.3 L822.8,137.5 L823.5,137.9 L824.3,137.6 L825.0,137.8 L825.8,137.8 L826.5,138.6 L827.2,138.1 L828.0,138.4 L828.7,137.7 L829.5,136.2 L830.2,136.5 L831.0,137.1 L831.7,137.6 L832.4,136.4 L833.2,136.2 L833.9,136.8 L834.7,137.1 L835.4,136.9 L836.1,136.0 L836.9,135.3 L837.6,135.5 L838.4,135.1 L839.1,134.0 L839.9,133.6 L840.6,133.8 L841.3,133.7 L842.1,133.1 L842.8,133.5 L843.6,134.0 L844.3,132.2 L845.0,132.9 L845.8,133.5 L846.5,133.1 L847.3,132.9 L848.0,133.3 L848.8,133.6 L849.5,133.2 L850.2,133.7 L851.0,133.7 L851.7,133.8 L852.5,133.0 L853.2,133.2 L854.0,132.3 L854.7,132.5 L855.4,132.7 L856.2,132.8 L856.9,132.4 L857.7,132.5 L858.4,130.4 L859.1,130.5 L859.9,130.1 L860.6,129.0 L861.4,129.5 L862.1,129.9 L862.9,128.5 L863.6,128.4 L864.3,128.8 L865.1,129.1 L865.8,127.5 L866.6,127.7 L867.3,126.6 L868.0,125.4 L868.8,125.6 L869.5,126.2 L870.3,125.1 L871.0,124.6 L871.8,123.2 L872.5,123.7 L873.2,123.7 L874.0,123.7 L874.7,124.2 L875.5,124.2 L876.2,123.3 L876.9,122.7 L877.7,122.7 L878.4,121.9 L879.2,122.1 L879.9,122.4 L880.7,122.6 L881.4,121.7 L882.1,121.5 L882.9,120.1 L883.6,118.8 L884.4,118.9 L885.1,118.9 L885.8,118.9 L886.6,119.2 L887.3,119.4 L888.1,119.4 L888.8,119.2 L889.6,119.2 L890.3,118.6 L891.0,118.4 L891.8,117.5 L892.5,117.9 L893.3,117.8 L894.0,117.3 L894.8,117.3 L895.5,117.8 L896.2,118.0 L897.0,118.0 L897.7,118.9 L898.5,118.5 L899.2,119.2 L899.9,119.6 L900.7,119.8 L901.4,119.5 L902.2,119.1 L902.9,119.3 L903.7,119.6 L904.4,119.8 L905.1,118.5 L905.9,118.5 L906.6,118.7 L907.4,118.7 L908.1,118.9 L908.8,119.0 L909.6,118.4 L910.3,118.6 L911.1,117.3 L911.8,116.9 L912.6,117.3 L913.3,117.5 L914.0,116.3 L914.8,116.3 L915.5,116.5 L916.3,116.5 L917.0,116.5 L917.7,116.3 L918.5,116.2 L919.2,116.5 L920.0,116.7 L920.7,116.9 L921.5,116.9 L922.2,116.0 L922.9,116.1 L923.7,116.3 L924.4,116.6 L925.2,116.2 L925.9,116.0 L926.6,116.2 L927.4,114.6 L928.1,114.9 L928.9,115.1 L929.6,114.0 L930.4,113.6 L931.1,113.6 L931.8,113.8 L932.6,113.2 L933.3,113.4 L934.1,113.6 L934.8,113.9 L935.5,112.1 L936.3,112.3 L937.0,112.3 L937.8,112.3 L938.5,112.3 L939.3,112.3 L940.0,112.3"/>
<path class="s4" d="M58.0,261.3 L58.7,261.3 L59.5,261.3 L60.2,261.0 L61.0,261.0 L61.7,261.0 L62.5,261.0 L63.2,261.1 L63.9,260.4 L64.7,260.2 L65.4,260.2 L66.2,260.2 L66.9,260.8 L67.6,260.8 L68.4,260.8 L69.1,260.8 L69.9,260.8 L70.6,260.8 L71.4,260.9 L72.1,261.1 L72.8,261.1 L73.6,261.1 L74.3,261.0 L75.1,261.0 L75.8,261.0 L76.5,261.0 L77.3,261.0 L78.0,261.0 L78.8,261.0 L79.5,261.0 L80.3,261.0 L81.0,261.0 L81.7,261.0 L82.5,261.0 L83.2,261.0 L84.0,261.0 L84.7,261.0 L85.4,261.0 L86.2,261.0 L86.9,261.0 L87.7,261.0 L88.4,261.0 L89.2,261.0 L89.9,261.0 L90.6,261.0 L91.4,261.0 L92.1,261.0 L92.9,261.0 L93.6,261.3 L94.3,261.5 L95.1,261.5 L95.8,261.4 L96.6,261.4 L97.3,261.4 L98.1,261.1 L98.8,261.1 L99.5,261.1 L100.3,261.2 L101.0,261.2 L101.8,261.2 L102.5,261.2 L103.2,260.8 L104.0,260.2 L104.7,260.2 L105.5,260.5 L106.2,260.5 L107.0,260.5 L107.7,260.3 L108.4,260.3 L109.2,260.3 L109.9,260.3 L110.7,260.3 L111.4,260.4 L112.2,260.4 L112.9,260.6 L113.6,261.2 L114.4,261.2 L115.1,261.2 L115.9,261.2 L116.6,261.2 L117.3,261.2 L118.1,261.2 L118.8,261.2 L119.6,261.2 L120.3,261.2 L121.1,261.4 L121.8,261.4 L122.5,261.4 L123.3,261.4 L124.0,260.9 L124.8,260.9 L125.5,260.9 L126.2,260.9 L127.0,260.9 L127.7,260.9 L128.5,260.9 L129.2,260.9 L130.0,260.9 L130.7,260.5 L131.4,260.5 L132.2,260.5 L132.9,260.5 L133.7,260.5 L134.4,260.5 L135.1,260.5 L135.9,260.5 L136.6,260.5 L137.4,260.5 L138.1,260.5 L138.9,260.3 L139.6,260.3 L140.3,260.3 L141.1,260.3 L141.8,260.3 L142.6,260.1 L143.3,260.1 L144.0,260.1 L144.8,260.1 L145.5,260.1 L146.3,260.1 L147.0,260.1 L147.8,260.1 L148.5,260.1 L149.2,260.1 L150.0,260.1 L150.7,260.1 L151.5,260.1 L152.2,260.1 L153.0,260.1 L153.7,260.1 L154.4,260.1 L155.2,260.1 L155.9,260.1 L156.7,260.1 L157.4,260.3 L158.1,260.3 L158.9,260.3 L159.6,260.3 L160.4,260.3 L161.1,260.3 L161.9,260.3 L162.6,260.3 L163.3,260.3 L164.1,260.3 L164.8,260.3 L165.6,260.3 L166.3,260.4 L167.0,260.4 L167.8,260.4 L168.5,260.4 L169.3,260.4 L170.0,260.1 L170.8,260.3 L171.5,260.3 L172.2,260.3 L173.0,260.3 L173.7,260.3 L174.5,260.5 L175.2,260.3 L175.9,260.3 L176.7,260.3 L177.4,260.1 L178.2,260.1 L178.9,260.1 L179.7,260.1 L180.4,260.1 L181.1,260.1 L181.9,260.1 L182.6,259.8 L183.4,259.8 L184.1,259.8 L184.8,259.8 L185.6,259.3 L186.3,259.3 L187.1,259.3 L187.8,259.3 L188.6,259.3 L189.3,259.3 L190.0,259.3 L190.8,259.3 L191.5,259.3 L192.3,259.5 L193.0,259.5 L193.7,259.5 L194.5,259.5 L195.2,259.5 L196.0,259.5 L196.7,259.5 L197.5,259.5 L198.2,259.5 L198.9,259.5 L199.7,259.4 L200.4,259.4 L201.2,259.4 L201.9,259.4 L202.7,259.4 L203.4,259.4 L204.1,259.4 L204.9,259.3 L205.6,259.1 L206.4,259.1 L207.1,259.1 L207.8,259.1 L208.6,259.1 L209.3,259.1 L210.1,259.1 L210.8,258.5 L211.6,258.5 L212.3,258.5 L213.0,258.5 L213.8,258.4 L214.5,258.4 L215.3,258.1 L216.0,258.1 L216.7,258.1 L217.5,258.1 L218.2,258.1 L219.0,258.1 L219.7,258.1 L220.5,258.1 L221.2,258.1 L221.9,258.1 L222.7,258.1 L223.4,258.1 L224.2,258.1 L224.9,258.1 L225.6,258.1 L226.4,258.1 L227.1,258.1 L227.9,257.4 L228.6,257.4 L229.4,257.5 L230.1,256.8 L230.8,256.8 L231.6,256.8 L232.3,256.8 L233.1,256.8 L233.8,257.1 L234.5,257.1 L235.3,257.1 L236.0,257.2 L236.8,257.2 L237.5,257.2 L238.3,257.1 L239.0,257.1 L239.7,257.0 L240.5,257.0 L241.2,257.0 L242.0,257.0 L242.7,257.0 L243.4,257.0 L244.2,257.0 L244.9,257.0 L245.7,257.0 L246.4,256.9 L247.2,255.7 L247.9,255.7 L248.6,255.7 L249.4,255.7 L250.1,255.7 L250.9,255.7 L251.6,255.7 L252.4,255.7 L253.1,255.7 L253.8,255.7 L254.6,255.7 L255.3,255.7 L256.1,255.7 L256.8,255.7 L257.5,255.7 L258.3,255.7 L259.0,255.7 L259.8,255.7 L260.5,256.5 L261.3,256.5 L262.0,256.5 L262.7,255.5 L263.5,255.5 L264.2,255.5 L265.0,255.5 L265.7,255.5 L266.4,255.5 L267.2,255.5 L267.9,255.5 L268.7,255.6 L269.4,255.6 L270.2,255.6 L270.9,255.7 L271.6,255.7 L272.4,255.5 L273.1,255.5 L273.9,255.5 L274.6,255.9 L275.3,255.9 L276.1,255.9 L276.8,255.9 L277.6,255.0 L278.3,255.0 L279.1,255.0 L279.8,254.7 L280.5,254.7 L281.3,254.7 L282.0,254.7 L282.8,254.7 L283.5,254.7 L284.2,254.7 L285.0,254.7 L285.7,254.7 L286.5,254.7 L287.2,254.7 L288.0,254.7 L288.7,254.0 L289.4,254.0 L290.2,253.9 L290.9,253.9 L291.7,253.9 L292.4,253.2 L293.2,253.2 L293.9,252.4 L294.6,252.4 L295.4,252.4 L296.1,252.3 L296.9,252.3 L297.6,252.5 L298.3,252.5 L299.1,251.9 L299.8,251.9 L300.6,251.7 L301.3,251.7 L302.1,251.7 L302.8,251.7 L303.5,251.7 L304.3,251.7 L305.0,251.7 L305.8,252.1 L306.5,252.1 L307.2,252.1 L308.0,251.7 L308.7,251.7 L309.5,251.7 L310.2,251.7 L311.0,251.7 L311.7,251.7 L312.4,251.8 L313.2,251.8 L313.9,251.8 L314.7,251.8 L315.4,251.8 L316.1,251.8 L316.9,251.8 L317.6,251.8 L318.4,251.8 L319.1,251.9 L319.9,251.9 L320.6,251.9 L321.3,251.9 L322.1,251.9 L322.8,251.9 L323.6,252.3 L324.3,252.3 L325.0,251.8 L325.8,251.8 L326.5,251.8 L327.3,251.8 L328.0,251.8 L328.8,251.7 L329.5,251.7 L330.2,251.7 L331.0,251.7 L331.7,251.7 L332.5,251.7 L333.2,251.7 L333.9,251.9 L334.7,251.9 L335.4,251.9 L336.2,251.9 L336.9,251.9 L337.7,251.9 L338.4,251.6 L339.1,251.6 L339.9,251.6 L340.6,251.6 L341.4,251.6 L342.1,251.6 L342.9,251.6 L343.6,251.7 L344.3,251.7 L345.1,251.7 L345.8,251.7 L346.6,251.7 L347.3,251.7 L348.0,250.9 L348.8,250.9 L349.5,250.5 L350.3,250.5 L351.0,250.0 L351.8,250.0 L352.5,250.0 L353.2,250.0 L354.0,250.0 L354.7,250.0 L355.5,250.1 L356.2,250.1 L356.9,250.1 L357.7,250.1 L358.4,250.1 L359.2,250.1 L359.9,250.1 L360.7,250.0 L361.4,250.0 L362.1,250.2 L362.9,250.2 L363.6,250.2 L364.4,249.5 L365.1,249.2 L365.8,249.2 L366.6,249.2 L367.3,249.2 L368.1,249.2 L368.8,249.0 L369.6,249.0 L370.3,249.2 L371.0,249.2 L371.8,248.9 L372.5,248.7 L373.3,248.7 L374.0,248.7 L374.7,248.7 L375.5,248.7 L376.2,248.7 L377.0,248.9 L377.7,248.9 L378.5,249.1 L379.2,249.1 L379.9,249.1 L380.7,249.2 L381.4,249.2 L382.2,249.2 L382.9,249.2 L383.7,249.2 L384.4,249.2 L385.1,249.2 L385.9,249.4 L386.6,249.4 L387.4,249.4 L388.1,249.4 L388.8,249.4 L389.6,249.4 L390.3,249.3 L391.1,249.5 L391.8,249.5 L392.6,249.5 L393.3,249.4 L394.0,249.4 L394.8,249.6 L395.5,249.6 L396.3,249.6 L397.0,249.1 L397.7,249.1 L398.5,249.0 L399.2,249.0 L400.0,248.9 L400.7,248.9 L401.5,248.9 L402.2,248.9 L402.9,248.8 L403.7,248.8 L404.4,248.6 L405.2,248.6 L405.9,248.6 L406.6,248.6 L407.4,248.6 L408.1,248.6 L408.9,248.7 L409.6,248.7 L410.4,248.7 L411.1,248.7 L411.8,248.9 L412.6,248.9 L413.3,248.9 L414.1,249.0 L414.8,249.0 L415.5,249.0 L416.3,249.0 L417.0,249.0 L417.8,249.0 L418.5,249.0 L419.3,248.4 L420.0,248.4 L420.7,248.4 L421.5,248.1 L422.2,248.1 L423.0,248.1 L423.7,248.1 L424.4,248.1 L425.2,248.2 L425.9,248.2 L426.7,248.4 L427.4,248.4 L428.2,248.4 L428.9,248.4 L429.6,248.3 L430.4,248.2 L431.1,248.2 L431.9,248.2 L432.6,248.2 L433.4,248.2 L434.1,248.2 L434.8,248.0 L435.6,248.0 L436.3,248.0 L437.1,248.0 L437.8,248.0 L438.5,248.0 L439.3,248.0 L440.0,248.0 L440.8,248.0 L441.5,246.9 L442.3,246.9 L443.0,246.9 L443.7,247.1 L444.5,247.1 L445.2,247.1 L446.0,247.1 L446.7,247.1 L447.4,247.1 L448.2,247.3 L448.9,247.3 L449.7,247.3 L450.4,247.3 L451.2,247.3 L451.9,247.3 L452.6,247.3 L453.4,247.3 L454.1,247.3 L454.9,246.5 L455.6,246.5 L456.3,246.5 L457.1,246.5 L457.8,246.5 L458.6,246.5 L459.3,246.5 L460.1,245.3 L460.8,245.3 L461.5,245.5 L462.3,245.5 L463.0,245.5 L463.8,245.5 L464.5,245.7 L465.2,245.7 L466.0,245.7 L466.7,245.7 L467.5,245.4 L468.2,245.2 L469.0,245.2 L469.7,245.2 L470.4,245.1 L471.2,245.1 L471.9,245.1 L472.7,245.9 L473.4,245.9 L474.1,246.3 L474.9,246.3 L475.6,246.3 L476.4,246.5 L477.1,246.5 L477.9,246.5 L478.6,246.9 L479.3,246.9 L480.1,246.9 L480.8,246.9 L481.6,246.9 L482.3,246.7 L483.1,246.6 L483.8,246.6 L484.5,246.6 L485.3,246.6 L486.0,246.6 L486.8,246.6 L487.5,246.6 L488.2,247.0 L489.0,246.6 L489.7,246.6 L490.5,246.9 L491.2,246.9 L492.0,246.9 L492.7,246.9 L493.4,246.9 L494.2,246.9 L494.9,246.9 L495.7,247.0 L496.4,247.0 L497.1,247.0 L497.9,247.0 L498.6,247.0 L499.4,247.0 L500.1,247.0 L500.9,247.0 L501.6,247.0 L502.3,247.0 L503.1,247.2 L503.8,247.2 L504.6,246.3 L505.3,246.3 L506.0,246.5 L506.8,246.2 L507.5,246.2 L508.3,246.2 L509.0,246.2 L509.8,246.2 L510.5,246.2 L511.2,246.2 L512.0,245.9 L512.7,245.8 L513.5,245.8 L514.2,245.8 L514.9,245.8 L515.7,245.8 L516.4,245.8 L517.2,246.5 L517.9,246.5 L518.7,247.0 L519.4,247.2 L520.1,246.9 L520.9,246.9 L521.6,246.9 L522.4,246.3 L523.1,246.4 L523.9,246.4 L524.6,246.3 L525.3,245.7 L526.1,245.7 L526.8,245.7 L527.6,245.7 L528.3,246.0 L529.0,246.0 L529.8,246.1 L530.5,245.8 L531.3,245.8 L532.0,245.6 L532.8,245.6 L533.5,245.6 L534.2,245.6 L535.0,245.6 L535.7,245.6 L536.5,245.6 L537.2,245.9 L537.9,245.9 L538.7,245.9 L539.4,245.8 L540.2,245.8 L540.9,246.0 L541.7,244.9 L542.4,244.9 L543.1,244.9 L543.9,245.0 L544.6,245.0 L545.4,245.0 L546.1,245.0 L546.8,244.8 L547.6,243.9 L548.3,243.9 L549.1,243.9 L549.8,243.9 L550.6,243.6 L551.3,243.1 L552.0,243.1 L552.8,243.1 L553.5,243.1 L554.3,243.1 L555.0,243.1 L555.7,242.9 L556.5,242.9 L557.2,242.9 L558.0,242.9 L558.7,243.1 L559.5,242.7 L560.2,242.7 L560.9,242.7 L561.7,241.8 L562.4,241.8 L563.2,241.7 L563.9,241.7 L564.6,241.7 L565.4,241.7 L566.1,241.7 L566.9,241.9 L567.6,241.9 L568.4,241.9 L569.1,241.9 L569.8,242.1 L570.6,242.1 L571.3,242.1 L572.1,242.1 L572.8,241.7 L573.6,241.7 L574.3,241.7 L575.0,241.7 L575.8,241.4 L576.5,240.0 L577.3,240.0 L578.0,240.0 L578.7,240.0 L579.5,240.0 L580.2,240.0 L581.0,240.0 L581.7,240.0 L582.5,240.0 L583.2,240.0 L583.9,240.0 L584.7,240.0 L585.4,240.0 L586.2,240.1 L586.9,240.1 L587.6,240.1 L588.4,240.3 L589.1,240.3 L589.9,240.3 L590.6,240.3 L591.4,240.3 L592.1,240.3 L592.8,240.3 L593.6,239.8 L594.3,239.2 L595.1,239.2 L595.8,239.2 L596.5,239.2 L597.3,239.2 L598.0,238.0 L598.8,238.0 L599.5,238.0 L600.3,237.7 L601.0,237.7 L601.7,237.7 L602.5,237.7 L603.2,237.7 L604.0,237.7 L604.7,237.7 L605.4,237.7 L606.2,237.7 L606.9,237.7 L607.7,237.7 L608.4,237.7 L609.2,237.7 L609.9,237.7 L610.6,237.7 L611.4,237.7 L612.1,237.7 L612.9,237.7 L613.6,237.8 L614.3,237.8 L615.1,237.8 L615.8,237.1 L616.6,237.1 L617.3,237.1 L618.1,236.8 L618.8,236.8 L619.5,236.8 L620.3,236.8 L621.0,236.8 L621.8,236.8 L622.5,236.7 L623.3,236.3 L624.0,236.3 L624.7,236.5 L625.5,236.5 L626.2,236.4 L627.0,236.4 L627.7,236.4 L628.4,236.4 L629.2,235.9 L629.9,235.9 L630.7,235.9 L631.4,236.0 L632.2,235.9 L632.9,236.0 L633.6,236.0 L634.4,236.0 L635.1,236.0 L635.9,236.0 L636.6,236.0 L637.3,236.0 L638.1,236.1 L638.8,236.1 L639.6,236.1 L640.3,235.8 L641.1,235.7 L641.8,235.7 L642.5,235.5 L643.3,235.5 L644.0,235.4 L644.8,235.4 L645.5,235.3 L646.2,235.3 L647.0,235.3 L647.7,235.5 L648.5,235.5 L649.2,235.5 L650.0,235.1 L650.7,235.1 L651.4,235.1 L652.2,235.1 L652.9,235.1 L653.7,235.1 L654.4,235.1 L655.1,235.1 L655.9,235.1 L656.6,234.6 L657.4,234.0 L658.1,234.0 L658.9,234.0 L659.6,234.0 L660.3,234.0 L661.1,234.1 L661.8,234.1 L662.6,233.5 L663.3,233.5 L664.1,233.5 L664.8,233.3 L665.5,233.3 L666.3,233.4 L667.0,232.9 L667.8,233.0 L668.5,233.0 L669.2,233.0 L670.0,233.0 L670.7,233.0 L671.5,233.0 L672.2,233.0 L673.0,233.0 L673.7,233.0 L674.4,233.0 L675.2,233.1 L675.9,233.7 L676.7,233.7 L677.4,233.7 L678.1,233.4 L678.9,233.6 L679.6,233.6 L680.4,233.6 L681.1,234.0 L681.9,234.2 L682.6,234.0 L683.3,233.3 L684.1,232.9 L684.8,233.0 L685.6,233.0 L686.3,232.7 L687.0,232.7 L687.8,233.0 L688.5,233.0 L689.3,233.0 L690.0,233.0 L690.8,233.0 L691.5,233.0 L692.2,233.0 L693.0,233.6 L693.7,233.6 L694.5,233.6 L695.2,233.3 L695.9,232.9 L696.7,232.9 L697.4,232.8 L698.2,232.8 L698.9,232.8 L699.7,232.8 L700.4,232.8 L701.1,232.8 L701.9,232.8 L702.6,233.0 L703.4,233.0 L704.1,233.0 L704.8,233.0 L705.6,233.0 L706.3,233.0 L707.1,233.2 L707.8,232.6 L708.6,232.6 L709.3,232.6 L710.0,232.6 L710.8,232.6 L711.5,232.6 L712.3,232.1 L713.0,232.1 L713.8,232.1 L714.5,232.1 L715.2,232.1 L716.0,232.1 L716.7,232.1 L717.5,232.1 L718.2,232.1 L718.9,232.1 L719.7,232.1 L720.4,232.1 L721.2,232.1 L721.9,232.1 L722.7,231.9 L723.4,231.9 L724.1,231.9 L724.9,231.9 L725.6,231.9 L726.4,231.9 L727.1,231.9 L727.8,231.9 L728.6,232.1 L729.3,232.4 L730.1,232.4 L730.8,232.6 L731.6,233.4 L732.3,233.4 L733.0,233.1 L733.8,233.1 L734.5,233.1 L735.3,233.1 L736.0,233.1 L736.7,233.1 L737.5,233.1 L738.2,233.1 L739.0,233.1 L739.7,233.1 L740.5,233.1 L741.2,233.1 L741.9,232.7 L742.7,232.7 L743.4,232.7 L744.2,232.7 L744.9,232.8 L745.6,232.8 L746.4,232.8 L747.1,232.8 L747.9,232.8 L748.6,232.8 L749.4,232.8 L750.1,232.7 L750.8,232.3 L751.6,232.3 L752.3,232.3 L753.1,232.3 L753.8,232.3 L754.6,232.3 L755.3,232.3 L756.0,232.2 L756.8,231.9 L757.5,231.9 L758.3,232.0 L759.0,232.0 L759.7,232.0 L760.5,232.0 L761.2,232.1 L762.0,232.1 L762.7,232.1 L763.5,232.1 L764.2,232.1 L764.9,232.3 L765.7,232.0 L766.4,232.0 L767.2,230.3 L767.9,230.3 L768.6,230.3 L769.4,230.3 L770.1,230.3 L770.9,230.3 L771.6,230.3 L772.4,230.5 L773.1,230.5 L773.8,230.5 L774.6,230.3 L775.3,230.3 L776.1,230.3 L776.8,230.5 L777.5,230.5 L778.3,230.5 L779.0,230.5 L779.8,230.5 L780.5,230.5 L781.3,230.5 L782.0,230.5 L782.7,230.5 L783.5,230.5 L784.2,230.6 L785.0,230.6 L785.7,230.6 L786.4,230.6 L787.2,230.8 L787.9,230.8 L788.7,230.8 L789.4,230.9 L790.2,230.9 L790.9,230.9 L791.6,229.6 L792.4,229.6 L793.1,229.6 L793.9,229.6 L794.6,229.6 L795.3,229.6 L796.1,229.6 L796.8,229.6 L797.6,229.6 L798.3,229.6 L799.1,229.6 L799.8,229.6 L800.5,229.4 L801.3,229.4 L802.0,229.4 L802.8,229.4 L803.5,229.4 L804.3,229.4 L805.0,229.3 L805.7,229.3 L806.5,229.3 L807.2,229.4 L808.0,229.4 L808.7,229.4 L809.4,229.4 L810.2,229.4 L810.9,229.4 L811.7,229.0 L812.4,229.0 L813.2,229.2 L813.9,229.2 L814.6,229.2 L815.4,229.4 L816.1,229.4 L816.9,229.4 L817.6,229.1 L818.3,229.4 L819.1,229.4 L819.8,229.4 L820.6,229.4 L821.3,229.6 L822.1,229.7 L822.8,229.5 L823.5,229.5 L824.3,229.5 L825.0,229.5 L825.8,229.4 L826.5,229.4 L827.2,229.4 L828.0,229.4 L828.7,229.4 L829.5,229.4 L830.2,229.6 L831.0,229.6 L831.7,229.6 L832.4,229.6 L833.2,229.6 L833.9,229.7 L834.7,229.7 L835.4,230.1 L836.1,230.1 L836.9,230.1 L837.6,230.1 L838.4,230.1 L839.1,230.1 L839.9,230.1 L840.6,230.1 L841.3,230.1 L842.1,230.1 L842.8,230.1 L843.6,229.6 L844.3,229.6 L845.0,229.6 L845.8,229.4 L846.5,229.4 L847.3,229.4 L848.0,229.4 L848.8,229.4 L849.5,229.6 L850.2,229.1 L851.0,229.1 L851.7,229.1 L852.5,228.9 L853.2,229.2 L854.0,229.2 L854.7,229.2 L855.4,229.1 L856.2,228.9 L856.9,228.9 L857.7,228.9 L858.4,228.9 L859.1,228.9 L859.9,228.9 L860.6,228.9 L861.4,228.9 L862.1,228.9 L862.9,228.9 L863.6,228.8 L864.3,228.8 L865.1,228.8 L865.8,228.4 L866.6,228.4 L867.3,228.4 L868.0,228.1 L868.8,228.1 L869.5,228.1 L870.3,228.1 L871.0,228.1 L871.8,228.1 L872.5,228.0 L873.2,228.6 L874.0,228.7 L874.7,228.7 L875.5,228.7 L876.2,228.7 L876.9,228.7 L877.7,228.7 L878.4,228.2 L879.2,228.2 L879.9,228.2 L880.7,228.2 L881.4,228.2 L882.1,228.2 L882.9,228.2 L883.6,228.2 L884.4,228.1 L885.1,227.8 L885.8,227.8 L886.6,227.8 L887.3,227.7 L888.1,227.7 L888.8,227.7 L889.6,227.7 L890.3,227.7 L891.0,227.7 L891.8,227.7 L892.5,227.7 L893.3,227.7 L894.0,227.7 L894.8,227.7 L895.5,227.7 L896.2,227.7 L897.0,227.5 L897.7,227.5 L898.5,227.5 L899.2,227.5 L899.9,227.5 L900.7,227.5 L901.4,227.5 L902.2,227.2 L902.9,227.2 L903.7,227.2 L904.4,227.2 L905.1,227.2 L905.9,227.3 L906.6,227.3 L907.4,227.3 L908.1,227.3 L908.8,227.3 L909.6,227.3 L910.3,227.3 L911.1,227.3 L911.8,226.9 L912.6,226.9 L913.3,226.9 L914.0,226.9 L914.8,226.6 L915.5,226.6 L916.3,226.6 L917.0,226.3 L917.7,226.3 L918.5,226.3 L919.2,226.3 L920.0,226.5 L920.7,226.5 L921.5,226.5 L922.2,226.5 L922.9,226.5 L923.7,226.5 L924.4,226.3 L925.2,226.3 L925.9,226.3 L926.6,226.3 L927.4,226.3 L928.1,226.3 L928.9,226.3 L929.6,226.3 L930.4,226.0 L931.1,226.0 L931.8,226.0 L932.6,226.0 L933.3,225.6 L934.1,225.6 L934.8,225.6 L935.5,225.6 L936.3,225.5 L937.0,225.3 L937.8,225.2 L938.5,225.0 L939.3,225.1 L940.0,225.2"/>
</svg>