<svg viewBox="0 0 1030 200" width="100%" height="200" role="img" aria-label="{{index.a192}}">
<line class="g" x1="58" x2="880" y1="148.5" y2="148.5"/>
<text class="ax" x="52" y="152.5" text-anchor="end">0</text>
<line x1="58" x2="880" y1="103.3" y2="103.3" stroke="var(--ink-faint)" stroke-width="1" stroke-dasharray="4 4"/>
<text class="ax" x="886" y="107.3">{{index.t144}}</text>
<line x1="58" x2="880" y1="156.1" y2="156.1" stroke="var(--crit)" stroke-width="2" stroke-dasharray="3 3"/>
<text class="mk" x="886" y="160.1" fill="var(--crit)">{{index.t145}}</text>
<path fill="none" stroke="var(--series-2)" stroke-width="1.4" d="M58.0,94.4 L58.3,94.2 L58.5,93.1 L58.8,97.9 L59.0,93.8 L59.3,84.9 L59.5,88.3 L59.8,90.8 L60.1,90.8 L60.3,88.1 L60.6,87.9 L60.8,83.4 L61.1,83.6 L61.3,82.7 L61.6,82.2 L61.9,82.0 L62.1,82.2 L62.4,86.5 L62.6,83.0 L62.9,79.8 L63.2,77.0 L63.4,77.0 L63.7,81.2 L63.9,85.4 L64.2,77.6 L64.4,70.4 L64.7,70.2 L65.0,70.2 L65.2,67.3 L65.5,68.2 L65.7,64.5 L66.0,70.7 L66.2,73.6 L66.5,77.8 L66.8,82.6 L67.0,91.3 L67.3,91.3 L67.5,91.3 L67.8,92.5 L68.0,90.5 L68.3,87.2 L68.6,90.0 L68.8,90.0 L69.1,92.9 L69.3,88.3 L69.6,88.1 L69.8,94.7 L70.1,94.7 L70.4,97.4 L70.6,97.5 L70.9,93.7 L71.1,93.7 L71.4,93.7 L71.7,93.7 L71.9,90.4 L72.2,99.0 L72.4,104.3 L72.7,104.3 L72.9,116.2 L73.2,111.5 L73.5,107.1 L73.7,106.9 L74.0,108.8 L74.2,117.5 L74.5,112.9 L74.7,113.5 L75.0,113.2 L75.3,119.3 L75.5,119.4 L75.8,124.3 L76.0,124.4 L76.3,116.0 L76.5,121.4 L76.8,126.2 L77.1,126.3 L77.3,129.2 L77.6,133.5 L77.8,142.4 L78.1,142.2 L78.4,142.6 L78.6,142.6 L78.9,142.5 L79.1,131.0 L79.4,135.8 L79.6,131.7 L79.9,123.3 L80.2,127.9 L80.4,124.8 L80.7,120.3 L80.9,115.8 L81.2,110.8 L81.4,120.8 L81.7,121.7 L82.0,121.6 L82.2,121.5 L82.5,117.7 L82.7,117.7 L83.0,118.3 L83.2,116.8 L83.5,116.5 L83.8,116.7 L84.0,108.5 L84.3,109.7 L84.5,103.0 L84.8,107.1 L85.0,116.0 L85.3,106.4 L85.6,102.0 L85.8,98.0 L86.1,93.0 L86.3,89.3 L86.6,94.4 L86.9,89.1 L87.1,84.9 L87.4,90.1 L87.6,90.3 L87.9,90.0 L88.1,90.1 L88.4,89.1 L88.7,92.2 L88.9,86.8 L89.2,80.7 L89.4,85.2 L89.7,89.8 L89.9,101.3 L90.2,107.5 L90.5,110.5 L90.7,110.7 L91.0,111.9 L91.2,111.7 L91.5,107.2 L91.7,106.9 L92.0,105.9 L92.3,110.4 L92.5,105.4 L92.8,105.6 L93.0,105.5 L93.3,104.7 L93.5,101.9 L93.8,99.7 L94.1,102.9 L94.3,103.0 L94.6,103.0 L94.8,103.0 L95.1,107.5 L95.4,103.7 L95.6,104.5 L95.9,99.7 L96.1,99.7 L96.4,99.5 L96.6,103.4 L96.9,100.5 L97.2,100.6 L97.4,100.6 L97.7,105.4 L97.9,105.7 L98.2,105.3 L98.4,105.3 L98.7,105.3 L99.0,109.9 L99.2,111.4 L99.5,106.9 L99.7,106.9 L100.0,106.8 L100.2,111.4 L100.5,114.3 L100.8,111.7 L101.0,110.4 L101.3,104.5 L101.5,104.3 L101.8,104.3 L102.0,108.1 L102.3,105.2 L102.6,99.3 L102.8,99.2 L103.1,99.5 L103.3,99.7 L103.6,99.7 L103.9,99.6 L104.1,97.8 L104.4,97.8 L104.6,96.6 L104.9,108.3 L105.1,99.9 L105.4,103.7 L105.7,112.3 L105.9,107.6 L106.2,110.7 L106.4,109.0 L106.7,113.7 L106.9,118.9 L107.2,118.4 L107.5,118.6 L107.7,118.7 L108.0,118.7 L108.2,127.3 L108.5,127.3 L108.7,115.8 L109.0,120.4 L109.3,120.4 L109.5,120.3 L109.8,128.7 L110.0,125.6 L110.3,130.8 L110.6,130.8 L110.8,133.8 L111.1,144.6 L111.3,149.0 L111.6,153.1 L111.8,149.7 L112.1,153.6 L112.4,153.1 L112.6,161.0 L112.9,165.5 L113.1,163.7 L113.4,161.2 L113.6,161.5 L113.9,157.1 L114.2,161.6 L114.4,160.2 L114.7,164.1 L114.9,161.7 L115.2,150.3 L115.4,138.6 L115.7,134.8 L116.0,135.6 L116.2,134.3 L116.5,131.2 L116.7,132.8 L117.0,132.2 L117.2,140.5 L117.5,140.5 L117.8,139.6 L118.0,131.3 L118.3,136.1 L118.5,135.9 L118.8,130.8 L119.1,131.6 L119.3,130.7 L119.6,134.9 L119.8,134.9 L120.1,134.8 L120.3,133.4 L120.6,130.6 L120.9,126.0 L121.1,127.6 L121.4,132.3 L121.6,137.3 L121.9,135.4 L122.1,130.9 L122.4,130.7 L122.7,133.5 L122.9,130.6 L123.2,127.7 L123.4,131.2 L123.7,127.2 L123.9,127.4 L124.2,127.6 L124.5,127.5 L124.7,127.6 L125.0,130.7 L125.2,132.2 L125.5,132.2 L125.7,132.3 L126.0,132.4 L126.3,132.4 L126.5,135.0 L126.8,135.0 L127.0,140.8 L127.3,135.6 L127.6,135.6 L127.8,140.1 L128.1,142.8 L128.3,148.7 L128.6,147.9 L128.8,136.2 L129.1,132.5 L129.4,132.5 L129.6,132.7 L129.9,134.3 L130.1,129.8 L130.4,122.9 L130.6,122.8 L130.9,131.2 L131.2,125.9 L131.4,125.7 L131.7,130.1 L131.9,130.0 L132.2,136.2 L132.4,135.9 L132.7,135.8 L133.0,137.0 L133.2,130.7 L133.5,130.3 L133.7,125.8 L134.0,121.2 L134.2,117.4 L134.5,120.9 L134.8,120.7 L135.0,112.6 L135.3,108.0 L135.5,108.0 L135.8,110.8 L136.1,100.4 L136.3,100.5 L136.6,100.4 L136.8,100.4 L137.1,100.4 L137.3,95.9 L137.6,106.8 L137.9,106.8 L138.1,98.6 L138.4,98.6 L138.6,98.5 L138.9,100.1 L139.1,101.7 L139.4,97.2 L139.7,97.8 L139.9,97.8 L140.2,87.5 L140.4,92.1 L140.7,100.5 L140.9,107.3 L141.2,119.1 L141.5,119.4 L141.7,119.3 L142.0,120.6 L142.2,123.7 L142.5,123.7 L142.8,124.5 L143.0,124.4 L143.3,124.5 L143.5,126.4 L143.8,130.2 L144.0,124.9 L144.3,122.1 L144.6,124.0 L144.8,124.2 L145.1,127.9 L145.3,128.0 L145.6,125.1 L145.8,120.6 L146.1,120.2 L146.4,122.9 L146.6,127.5 L146.9,121.6 L147.1,117.6 L147.4,117.4 L147.6,119.2 L147.9,121.6 L148.2,121.7 L148.4,117.0 L148.7,119.9 L148.9,122.8 L149.2,122.9 L149.4,125.0 L149.7,123.8 L150.0,123.6 L150.2,115.8 L150.5,110.8 L150.7,110.7 L151.0,113.6 L151.3,109.1 L151.5,109.0 L151.8,108.8 L152.0,96.4 L152.3,96.3 L152.5,93.7 L152.8,93.7 L153.1,99.0 L153.3,99.1 L153.6,94.6 L153.8,94.7 L154.1,94.7 L154.3,95.4 L154.6,106.8 L154.9,110.5 L155.1,105.5 L155.4,100.2 L155.6,100.0 L155.9,100.9 L156.1,97.8 L156.4,92.4 L156.7,89.6 L156.9,88.7 L157.2,88.9 L157.4,88.9 L157.7,84.5 L157.9,84.4 L158.2,80.0 L158.5,72.2 L158.7,71.4 L159.0,77.5 L159.2,72.8 L159.5,77.4 L159.8,79.0 L160.0,82.8 L160.3,90.9 L160.5,91.1 L160.8,93.3 L161.0,97.7 L161.3,97.6 L161.6,97.6 L161.8,109.4 L162.1,109.4 L162.3,109.5 L162.6,109.4 L162.8,109.5 L163.1,111.0 L163.4,111.0 L163.6,108.0 L163.9,116.2 L164.1,116.2 L164.4,116.3 L164.6,113.5 L164.9,113.1 L165.2,112.8 L165.4,111.5 L165.7,107.0 L165.9,118.9 L166.2,115.1 L166.4,115.1 L166.7,119.5 L167.0,111.4 L167.2,115.0 L167.5,115.0 L167.7,115.0 L168.0,115.1 L168.3,115.0 L168.5,110.0 L168.8,105.5 L169.0,102.9 L169.3,102.9 L169.5,107.6 L169.8,112.8 L170.1,111.1 L170.3,112.6 L170.6,112.3 L170.8,112.3 L171.1,112.9 L171.3,115.8 L171.6,117.4 L171.9,119.2 L172.1,119.2 L172.4,119.3 L172.6,127.4 L172.9,131.4 L173.1,131.4 L173.4,131.4 L173.7,130.9 L173.9,131.0 L174.2,127.6 L174.4,127.7 L174.7,125.1 L175.0,119.0 L175.2,116.2 L175.5,115.9 L175.7,115.9 L176.0,122.3 L176.2,127.1 L176.5,122.4 L176.8,118.0 L177.0,122.4 L177.3,122.4 L177.5,117.9 L177.8,130.4 L178.0,130.4 L178.3,126.4 L178.6,120.4 L178.8,115.8 L179.1,115.6 L179.3,115.7 L179.6,112.5 L179.8,112.5 L180.1,112.5 L180.4,112.5 L180.6,112.7 L180.9,117.3 L181.1,122.4 L181.4,110.4 L181.6,114.3 L181.9,121.8 L182.2,127.0 L182.4,129.9 L182.7,134.4 L182.9,134.2 L183.2,131.5 L183.5,136.1 L183.7,136.1 L184.0,139.7 L184.2,147.5 L184.5,142.1 L184.7,142.1 L185.0,146.8 L185.3,135.1 L185.5,138.0 L185.8,137.1 L186.0,137.0 L186.3,129.2 L186.5,135.7 L186.8,135.7 L187.1,135.7 L187.3,132.9 L187.6,125.2 L187.8,125.1 L188.1,124.9 L188.3,125.1 L188.6,125.0 L188.9,122.3 L189.1,122.3 L189.4,125.3 L189.6,125.2 L189.9,121.5 L190.1,121.6 L190.4,124.3 L190.7,125.7 L190.9,130.2 L191.2,135.3 L191.4,139.8 L191.7,136.4 L192.0,137.1 L192.2,132.6 L192.5,132.6 L192.7,140.4 L193.0,138.5 L193.2,138.5 L193.5,138.6 L193.8,138.6 L194.0,138.6 L194.3,143.4 L194.5,144.9 L194.8,147.6 L195.0,147.4 L195.3,147.3 L195.6,147.4 L195.8,149.9 L196.1,151.7 L196.3,140.2 L196.6,140.2 L196.8,136.9 L197.1,132.6 L197.4,132.8 L197.6,132.9 L197.9,132.9 L198.1,120.9 L198.4,119.4 L198.6,119.2 L198.9,119.2 L199.2,114.0 L199.4,109.0 L199.7,109.0 L199.9,117.0 L200.2,117.0 L200.5,119.8 L200.7,125.9 L201.0,130.3 L201.2,131.8 L201.5,127.4 L201.7,128.6 L202.0,128.5 L202.3,133.0 L202.5,132.6 L202.8,132.6 L203.0,132.7 L203.3,132.0 L203.5,132.0 L203.8,132.1 L204.1,138.6 L204.3,133.7 L204.6,138.2 L204.8,138.1 L205.1,141.1 L205.3,143.8 L205.6,143.7 L205.9,143.8 L206.1,143.8 L206.4,137.5 L206.6,134.9 L206.9,134.9 L207.2,147.0 L207.4,146.8 L207.7,146.2 L207.9,146.2 L208.2,146.2 L208.4,147.8 L208.7,147.7 L209.0,150.4 L209.2,147.4 L209.5,147.3 L209.7,148.4 L210.0,148.4 L210.2,153.8 L210.5,152.0 L210.8,147.6 L211.0,159.3 L211.3,153.3 L211.5,154.2 L211.8,150.5 L212.0,152.2 L212.3,150.8 L212.6,143.4 L212.8,138.9 L213.1,138.0 L213.3,142.3 L213.6,134.7 L213.8,130.2 L214.1,130.0 L214.4,130.1 L214.6,135.6 L214.9,135.6 L215.1,135.5 L215.4,135.6 L215.7,139.3 L215.9,139.3 L216.2,136.0 L216.4,136.0 L216.7,136.0 L216.9,128.6 L217.2,124.1 L217.5,124.6 L217.7,127.4 L218.0,131.9 L218.2,127.4 L218.5,124.3 L218.7,126.0 L219.0,126.0 L219.3,126.1 L219.5,126.1 L219.8,126.1 L220.0,126.1 L220.3,129.0 L220.5,128.2 L220.8,128.2 L221.1,120.6 L221.3,115.8 L221.6,117.8 L221.8,105.5 L222.1,117.0 L222.3,117.0 L222.6,119.5 L222.9,120.6 L223.1,118.5 L223.4,118.5 L223.6,118.5 L223.9,130.3 L224.2,131.8 L224.4,131.9 L224.7,131.8 L224.9,131.0 L225.2,138.7 L225.4,138.6 L225.7,138.6 L226.0,132.5 L226.2,132.3 L226.5,132.3 L226.7,120.6 L227.0,116.0 L227.2,120.5 L227.5,116.0 L227.8,116.1 L228.0,110.6 L228.3,112.5 L228.5,108.0 L228.8,107.9 L229.0,110.4 L229.3,106.0 L229.6,94.7 L229.8,91.9 L230.1,102.8 L230.3,102.7 L230.6,99.0 L230.8,100.3 L231.1,100.7 L231.4,96.5 L231.6,93.7 L231.9,89.2 L232.1,95.4 L232.4,93.5 L232.7,93.5 L232.9,93.5 L233.2,93.3 L233.4,97.6 L233.7,97.6 L233.9,94.7 L234.2,92.3 L234.5,92.4 L234.7,84.9 L235.0,83.2 L235.2,78.7 L235.5,73.7 L235.7,68.6 L236.0,68.5 L236.3,70.3 L236.5,71.9 L236.8,71.8 L237.0,77.7 L237.3,65.7 L237.5,69.5 L237.8,75.6 L238.1,76.5 L238.3,84.0 L238.6,88.5 L238.8,92.3 L239.1,91.1 L239.4,94.1 L239.6,94.9 L239.9,88.3 L240.1,88.3 L240.4,87.8 L240.6,83.3 L240.9,83.3 L241.2,79.6 L241.4,79.4 L241.7,79.4 L241.9,80.1 L242.2,80.3 L242.4,80.4 L242.7,87.8 L243.0,92.3 L243.2,95.1 L243.5,92.3 L243.7,92.3 L244.0,92.3 L244.2,95.5 L244.5,95.7 L244.8,91.2 L245.0,91.0 L245.3,87.2 L245.5,82.5 L245.8,80.2 L246.0,80.1 L246.3,69.5 L246.6,69.5 L246.8,77.1 L247.1,81.9 L247.3,77.4 L247.6,89.7 L247.9,81.5 L248.1,81.5 L248.4,81.7 L248.6,84.9 L248.9,89.8 L249.1,89.7 L249.4,89.6 L249.7,89.7 L249.9,86.9 L250.2,86.8 L250.4,82.4 L250.7,88.4 L250.9,88.3 L251.2,83.3 L251.5,83.1 L251.7,89.2 L252.0,87.5 L252.2,80.1 L252.5,91.8 L252.7,96.3 L253.0,96.3 L253.3,99.0 L253.5,99.1 L253.8,97.8 L254.0,99.3 L254.3,101.3 L254.5,99.7 L254.8,102.4 L255.1,97.1 L255.3,108.4 L255.6,111.3 L255.8,105.3 L256.1,105.3 L256.4,109.1 L256.6,101.7 L256.9,101.7 L257.1,106.0 L257.4,108.8 L257.6,113.3 L257.9,109.6 L258.2,109.6 L258.4,109.5 L258.7,109.7 L258.9,102.0 L259.2,97.6 L259.4,96.1 L259.7,99.2 L260.0,99.9 L260.2,99.8 L260.5,107.3 L260.7,110.5 L261.0,115.0 L261.2,120.0 L261.5,125.1 L261.8,120.6 L262.0,120.8 L262.3,123.7 L262.5,119.2 L262.8,107.0 L263.0,111.0 L263.3,110.9 L263.6,106.4 L263.8,106.3 L264.1,106.3 L264.3,103.7 L264.6,100.0 L264.9,100.5 L265.1,97.0 L265.4,100.8 L265.6,105.1 L265.9,97.3 L266.1,96.9 L266.4,95.4 L266.7,95.4 L266.9,94.1 L267.2,83.2 L267.4,83.2 L267.7,85.8 L267.9,85.6 L268.2,81.0 L268.5,76.8 L268.7,76.8 L269.0,76.9 L269.2,80.5 L269.5,69.7 L269.7,74.3 L270.0,70.9 L270.3,70.9 L270.5,75.5 L270.8,75.6 L271.0,79.4 L271.3,84.1 L271.5,75.1 L271.8,67.3 L272.1,74.2 L272.3,69.7 L272.6,69.7 L272.8,69.7 L273.1,74.2 L273.4,74.2 L273.6,82.4 L273.9,77.7 L274.1,74.8 L274.4,74.8 L274.6,71.0 L274.9,71.0 L275.2,71.2 L275.4,71.2 L275.7,66.1 L275.9,65.5 L276.2,65.7 L276.4,65.6 L276.7,65.6 L277.0,65.6 L277.2,65.7 L277.5,65.5 L277.7,62.6 L278.0,70.0 L278.2,70.0 L278.5,70.0 L278.8,70.1 L279.0,72.0 L279.3,71.9 L279.5,78.9 L279.8,80.4 L280.1,81.4 L280.3,83.1 L280.6,83.3 L280.8,93.0 L281.1,81.4 L281.3,81.2 L281.6,87.2 L281.9,87.2 L282.1,87.2 L282.4,91.5 L282.6,90.3 L282.9,90.3 L283.1,90.3 L283.4,90.6 L283.7,94.2 L283.9,98.7 L284.2,98.9 L284.4,98.9 L284.7,107.0 L284.9,111.5 L285.2,109.3 L285.5,106.1 L285.7,96.7 L286.0,96.7 L286.2,96.7 L286.5,93.5 L286.7,81.8 L287.0,80.9 L287.3,76.4 L287.5,78.1 L287.8,78.0 L288.0,77.1 L288.3,80.1 L288.6,92.4 L288.8,100.4 L289.1,94.5 L289.3,99.2 L289.6,99.3 L289.8,99.3 L290.1,94.0 L290.4,95.0 L290.6,99.0 L290.9,107.2 L291.1,99.1 L291.4,101.4 L291.6,109.3 L291.9,105.7 L292.2,111.7 L292.4,109.0 L292.7,112.6 L292.9,122.4 L293.2,116.6 L293.4,115.2 L293.7,115.3 L294.0,115.2 L294.2,118.1 L294.5,118.1 L294.7,118.1 L295.0,113.8 L295.2,121.8 L295.5,117.2 L295.8,120.7 L296.0,111.2 L296.3,111.1 L296.5,111.2 L296.8,111.2 L297.1,111.2 L297.3,122.5 L297.6,130.3 L297.8,135.0 L298.1,139.4 L298.3,139.5 L298.6,139.5 L298.9,128.4 L299.1,127.1 L299.4,123.3 L299.6,128.2 L299.9,126.0 L300.1,125.9 L300.4,127.0 L300.7,122.2 L300.9,121.9 L301.2,114.1 L301.4,120.5 L301.7,121.2 L301.9,120.3 L302.2,120.3 L302.5,108.8 L302.7,113.9 L303.0,114.0 L303.2,114.3 L303.5,118.9 L303.7,114.8 L304.0,114.8 L304.3,106.0 L304.5,105.9 L304.8,105.9 L305.0,106.0 L305.3,105.9 L305.6,105.8 L305.8,103.5 L306.1,103.5 L306.3,103.4 L306.6,99.6 L306.8,103.2 L307.1,98.8 L307.4,94.2 L307.6,94.2 L307.9,94.1 L308.1,97.5 L308.4,95.8 L308.6,91.0 L308.9,83.0 L309.2,82.8 L309.4,82.9 L309.7,83.0 L309.9,83.0 L310.2,82.8 L310.4,82.5 L310.7,82.4 L311.0,82.4 L311.2,85.3 L311.5,92.2 L311.7,84.2 L312.0,84.2 L312.3,88.9 L312.5,97.7 L312.8,98.5 L313.0,99.2 L313.3,97.5 L313.5,97.5 L313.8,96.2 L314.1,92.8 L314.3,92.8 L314.6,89.1 L314.8,92.0 L315.1,86.1 L315.3,86.0 L315.6,86.0 L315.9,94.1 L316.1,93.0 L316.4,90.2 L316.6,89.9 L316.9,98.0 L317.1,86.4 L317.4,86.3 L317.7,88.0 L317.9,88.2 L318.2,91.0 L318.4,90.6 L318.7,92.0 L318.9,97.8 L319.2,99.2 L319.5,99.0 L319.7,103.6 L320.0,105.1 L320.2,105.1 L320.5,104.9 L320.8,108.3 L321.0,106.9 L321.3,106.9 L321.5,98.6 L321.8,97.2 L322.0,97.2 L322.3,91.8 L322.6,91.8 L322.8,91.8 L323.1,89.1 L323.3,87.1 L323.6,87.0 L323.8,87.1 L324.1,87.1 L324.4,87.1 L324.6,98.3 L324.9,95.1 L325.1,99.0 L325.4,98.9 L325.6,99.5 L325.9,96.7 L326.2,99.5 L326.4,99.8 L326.7,99.1 L326.9,107.0 L327.2,108.6 L327.4,108.7 L327.7,113.9 L328.0,113.1 L328.2,120.8 L328.5,120.9 L328.7,121.0 L329.0,120.9 L329.3,118.0 L329.5,122.9 L329.8,118.4 L330.0,127.2 L330.3,127.2 L330.5,127.1 L330.8,127.0 L331.1,126.9 L331.3,124.3 L331.6,124.9 L331.8,122.0 L332.1,114.1 L332.3,113.5 L332.6,121.5 L332.9,126.0 L333.1,130.7 L333.4,130.7 L333.6,130.9 L333.9,126.3 L334.1,125.4 L334.4,122.1 L334.7,130.2 L334.9,118.8 L335.2,118.7 L335.4,114.5 L335.7,114.4 L335.9,114.3 L336.2,114.3 L336.5,114.3 L336.7,118.2 L337.0,113.6 L337.2,109.9 L337.5,118.2 L337.8,118.3 L338.0,118.0 L338.3,116.7 L338.5,116.7 L338.8,120.6 L339.0,125.0 L339.3,125.0 L339.6,126.6 L339.8,129.1 L340.1,129.1 L340.3,129.3 L340.6,131.6 L340.8,137.4 L341.1,134.5 L341.4,130.7 L341.6,122.8 L341.9,126.8 L342.1,124.3 L342.4,124.3 L342.6,118.3 L342.9,129.8 L343.2,130.1 L343.4,132.9 L343.7,125.3 L343.9,125.3 L344.2,127.2 L344.5,127.0 L344.7,126.7 L345.0,125.4 L345.2,125.5 L345.5,117.0 L345.7,116.9 L346.0,112.4 L346.3,109.6 L346.5,105.2 L346.8,109.6 L347.0,113.9 L347.3,122.1 L347.5,131.0 L347.8,131.2 L348.1,136.7 L348.3,136.8 L348.6,137.0 L348.8,139.7 L349.1,139.9 L349.3,131.8 L349.6,131.7 L349.9,131.7 L350.1,125.7 L350.4,125.6 L350.6,130.0 L350.9,129.9 L351.1,129.9 L351.4,134.4 L351.7,137.2 L351.9,137.4 L352.2,130.0 L352.4,131.1 L352.7,131.1 L353.0,126.5 L353.2,121.6 L353.5,118.8 L353.7,117.9 L354.0,121.7 L354.2,121.7 L354.5,113.5 L354.8,107.9 L355.0,107.7 L355.3,103.0 L355.5,106.6 L355.8,100.6 L356.0,100.5 L356.3,100.6 L356.6,100.6 L356.8,98.6 L357.1,96.7 L357.3,91.7 L357.6,94.7 L357.8,98.1 L358.1,98.4 L358.4,98.4 L358.6,93.9 L358.9,93.9 L359.1,93.9 L359.4,91.8 L359.6,91.6 L359.9,95.3 L360.2,100.6 L360.4,100.7 L360.7,111.4 L360.9,111.4 L361.2,115.5 L361.5,115.5 L361.7,114.2 L362.0,114.2 L362.2,109.3 L362.5,109.3 L362.7,113.8 L363.0,121.5 L363.3,121.2 L363.5,121.2 L363.8,121.2 L364.0,120.8 L364.3,120.8 L364.5,120.1 L364.8,115.7 L365.1,108.4 L365.3,97.5 L365.6,95.1 L365.8,90.4 L366.1,94.1 L366.3,88.7 L366.6,81.8 L366.9,84.6 L367.1,84.0 L367.4,83.5 L367.6,83.4 L367.9,88.8 L368.1,88.8 L368.4,94.9 L368.7,92.6 L368.9,92.4 L369.2,90.5 L369.4,97.9 L369.7,97.8 L370.0,97.7 L370.2,91.9 L370.5,92.2 L370.7,93.7 L371.0,85.6 L371.2,94.1 L371.5,94.0 L371.8,95.7 L372.0,98.5 L372.3,99.2 L372.5,99.4 L372.8,98.1 L373.0,98.1 L373.3,97.7 L373.6,97.9 L373.8,94.3 L374.1,91.4 L374.3,91.2 L374.6,83.1 L374.8,82.2 L375.1,87.5 L375.4,87.7 L375.6,87.6 L375.9,87.6 L376.1,87.7 L376.4,83.2 L376.7,83.2 L376.9,72.7 L377.2,70.5 L377.4,70.2 L377.7,70.2 L377.9,76.9 L378.2,76.7 L378.5,76.7 L378.7,73.3 L379.0,73.1 L379.2,76.0 L379.5,74.9 L379.7,74.9 L380.0,74.9 L380.3,82.8 L380.5,82.3 L380.8,85.5 L381.0,88.7 L381.3,87.3 L381.5,90.2 L381.8,86.3 L382.1,86.3 L382.3,86.4 L382.6,86.4 L382.8,90.9 L383.1,99.0 L383.3,94.8 L383.6,99.3 L383.9,103.5 L384.1,100.7 L384.4,105.2 L384.6,105.2 L384.9,97.1 L385.2,99.3 L385.4,104.1 L385.7,101.3 L385.9,98.0 L386.2,97.9 L386.4,93.5 L386.7,90.6 L387.0,90.7 L387.2,90.9 L387.5,92.4 L387.7,92.5 L388.0,89.3 L388.2,86.4 L388.5,86.4 L388.8,86.8 L389.0,85.6 L389.3,82.2 L389.5,77.4 L389.8,76.9 L390.0,77.0 L390.3,77.6 L390.6,82.1 L390.8,86.5 L391.1,98.2 L391.3,103.0 L391.6,106.4 L391.8,102.1 L392.1,105.3 L392.4,112.2 L392.6,106.9 L392.9,108.7 L393.1,116.9 L393.4,114.1 L393.7,114.2 L393.9,109.7 L394.2,110.1 L394.4,112.5 L394.7,112.6 L394.9,114.6 L395.2,110.3 L395.5,110.4 L395.7,110.5 L396.0,111.9 L396.2,111.9 L396.5,111.6 L396.7,116.9 L397.0,111.6 L397.3,111.6 L397.5,114.5 L397.8,114.5 L398.0,112.5 L398.3,112.3 L398.5,114.2 L398.8,114.2 L399.1,116.7 L399.3,116.4 L399.6,115.2 L399.8,118.1 L400.1,118.1 L400.3,126.3 L400.6,129.1 L400.9,132.0 L401.1,131.9 L401.4,127.7 L401.6,129.4 L401.9,127.8 L402.2,127.9 L402.4,125.1 L402.7,131.9 L402.9,123.9 L403.2,123.9 L403.4,123.8 L403.7,129.0 L404.0,124.5 L404.2,124.6 L404.5,132.5 L404.7,135.7 L405.0,135.6 L405.2,133.9 L405.5,128.8 L405.8,124.2 L406.0,124.5 L406.3,130.4 L406.5,130.4 L406.8,131.2 L407.0,122.2 L407.3,117.4 L407.6,121.3 L407.8,116.7 L408.1,116.6 L408.3,118.6 L408.6,118.7 L408.9,114.8 L409.1,118.8 L409.4,118.8 L409.6,114.2 L409.9,105.2 L410.1,105.1 L410.4,101.2 L410.7,109.2 L410.9,105.9 L411.2,105.9 L411.4,107.6 L411.7,109.1 L411.9,103.0 L412.2,105.1 L412.5,108.2 L412.7,103.6 L413.0,98.7 L413.2,93.5 L413.5,91.6 L413.7,99.6 L414.0,102.4 L414.3,99.2 L414.5,99.1 L414.8,91.0 L415.0,91.2 L415.3,96.0 L415.5,101.2 L415.8,101.2 L416.1,96.6 L416.3,92.7 L416.6,95.6 L416.8,87.8 L417.1,83.5 L417.4,84.5 L417.6,88.9 L417.9,86.9 L418.1,86.9 L418.4,89.3 L418.6,92.1 L418.9,92.0 L419.2,89.9 L419.4,89.9 L419.7,94.4 L419.9,93.9 L420.2,81.6 L420.4,77.0 L420.7,76.9 L421.0,78.1 L421.2,78.1 L421.5,73.7 L421.7,73.7 L422.0,72.4 L422.2,71.0 L422.5,73.8 L422.8,79.0 L423.0,79.1 L423.3,79.0 L423.5,77.1 L423.8,81.9 L424.0,76.9 L424.3,75.4 L424.6,75.4 L424.8,70.8 L425.1,70.8 L425.3,71.7 L425.6,68.1 L425.9,68.1 L426.1,56.3 L426.4,56.2 L426.6,56.2 L426.9,56.2 L427.1,57.7 L427.4,58.2 L427.7,59.7 L427.9,64.2 L428.2,65.7 L428.4,66.6 L428.7,76.6 L428.9,73.0 L429.2,73.1 L429.5,70.9 L429.7,74.3 L430.0,69.7 L430.2,69.7 L430.5,71.2 L430.7,71.3 L431.0,73.0 L431.3,78.1 L431.5,82.7 L431.8,82.7 L432.0,82.7 L432.3,82.6 L432.5,82.3 L432.8,88.4 L433.1,93.4 L433.3,93.5 L433.6,98.3 L433.8,86.9 L434.1,86.7 L434.4,82.9 L434.6,82.3 L434.9,78.8 L435.1,75.9 L435.4,79.4 L435.6,92.2 L435.9,86.3 L436.2,90.4 L436.4,85.9 L436.7,89.0 L436.9,85.4 L437.2,86.6 L437.4,83.0 L437.7,84.6 L438.0,87.5 L438.2,87.3 L438.5,91.8 L438.7,96.6 L439.0,101.7 L439.2,103.5 L439.5,101.9 L439.8,97.6 L440.0,100.7 L440.3,98.1 L440.5,104.2 L440.8,106.2 L441.1,106.2 L441.3,106.3 L441.6,106.2 L441.8,110.8 L442.1,111.9 L442.3,111.9 L442.6,119.7 L442.9,121.2 L443.1,121.3 L443.4,121.3 L443.6,126.1 L443.9,123.1 L444.1,126.0 L444.4,123.0 L444.7,122.1 L444.9,122.4 L445.2,122.4 L445.4,115.2 L445.7,115.2 L445.9,127.4 L446.2,130.6 L446.5,130.6 L446.7,133.8 L447.0,133.7 L447.2,133.6 L447.5,137.5 L447.7,138.7 L448.0,140.2 L448.3,128.5 L448.5,128.6 L448.8,128.6 L449.0,123.8 L449.3,122.7 L449.6,123.9 L449.8,128.8 L450.1,122.0 L450.3,120.3 L450.6,124.8 L450.8,120.2 L451.1,120.7 L451.4,112.9 L451.6,112.9 L451.9,121.8 L452.1,118.5 L452.4,112.6 L452.6,104.2 L452.9,107.1 L453.2,110.9 L453.4,98.9 L453.7,98.9 L453.9,100.4 L454.2,103.2 L454.4,103.3 L454.7,101.9 L455.0,101.9 L455.2,104.0 L455.5,105.3 L455.7,107.5 L456.0,106.0 L456.2,106.0 L456.5,100.8 L456.8,92.7 L457.0,92.8 L457.3,90.9 L457.5,90.9 L457.8,82.9 L458.1,80.1 L458.3,80.5 L458.6,83.0 L458.8,80.7 L459.1,78.2 L459.3,76.6 L459.6,85.3 L459.9,85.6 L460.1,89.4 L460.4,83.0 L460.6,85.6 L460.9,88.4 L461.1,88.1 L461.4,87.1 L461.7,93.3 L461.9,90.4 L462.2,91.9 L462.4,91.9 L462.7,91.4 L462.9,86.8 L463.2,93.2 L463.5,97.9 L463.7,96.2 L464.0,96.2 L464.2,96.2 L464.5,91.7 L464.7,91.8 L465.0,91.0 L465.3,92.7 L465.5,97.2 L465.8,97.2 L466.0,96.9 L466.3,100.1 L466.6,98.4 L466.8,93.8 L467.1,93.9 L467.3,94.0 L467.6,90.9 L467.8,93.8 L468.1,93.9 L468.4,94.8 L468.6,97.8 L468.9,97.8 L469.1,97.8 L469.4,93.4 L469.6,96.3 L469.9,96.3 L470.2,95.4 L470.4,96.3 L470.7,100.7 L470.9,100.7 L471.2,107.8 L471.4,103.4 L471.7,95.5 L472.0,96.8 L472.2,96.8 L472.5,89.0 L472.7,89.0 L473.0,90.6 L473.3,84.0 L473.5,82.9 L473.8,83.7 L474.0,88.1 L474.3,88.2 L474.5,83.7 L474.8,88.7 L475.1,91.8 L475.3,91.8 L475.6,89.6 L475.8,92.1 L476.1,93.9 L476.3,94.2 L476.6,96.0 L476.9,93.2 L477.1,104.5 L477.4,104.5 L477.6,95.8 L477.9,99.0 L478.1,105.0 L478.4,108.5 L478.7,108.5 L478.9,108.6 L479.2,120.5 L479.4,116.0 L479.7,115.7 L479.9,115.8 L480.2,115.8 L480.5,121.2 L480.7,121.3 L481.0,121.2 L481.2,121.2 L481.5,118.9 L481.8,120.5 L482.0,120.4 L482.3,121.1 L482.5,132.0 L482.8,131.9 L483.0,133.9 L483.3,128.6 L483.6,133.8 L483.8,134.0 L484.1,129.3 L484.3,132.0 L484.6,137.3 L484.8,135.4 L485.1,132.1 L485.4,134.9 L485.6,134.8 L485.9,130.3 L486.1,137.8 L486.4,138.7 L486.6,138.8 L486.9,137.7 L487.2,134.9 L487.4,126.6 L487.7,129.5 L487.9,132.6 L488.2,132.7 L488.4,128.6 L488.7,132.0 L489.0,133.8 L489.2,133.5 L489.5,135.3 L489.7,130.1 L490.0,130.6 L490.3,130.5 L490.5,128.1 L490.8,128.6 L491.0,124.0 L491.3,124.1 L491.5,124.3 L491.8,127.4 L492.1,127.5 L492.3,130.4 L492.6,131.2 L492.8,131.2 L493.1,129.6 L493.3,129.0 L493.6,124.4 L493.9,124.2 L494.1,122.5 L494.4,122.3 L494.6,110.5 L494.9,108.6 L495.1,108.6 L495.4,108.6 L495.7,108.5 L495.9,107.8 L496.2,107.8 L496.4,107.9 L496.7,107.9 L496.9,107.4 L497.2,111.9 L497.5,117.0 L497.7,109.1 L498.0,109.2 L498.2,115.4 L498.5,112.7 L498.8,115.5 L499.0,123.1 L499.3,123.7 L499.5,122.8 L499.8,130.2 L500.0,130.0 L500.3,126.6 L500.6,126.5 L500.8,126.3 L501.1,120.4 L501.3,121.7 L501.6,122.1 L501.8,122.0 L502.1,121.8 L502.4,121.9 L502.6,122.6 L502.9,118.8 L503.1,118.8 L503.4,125.8 L503.6,125.8 L503.9,117.8 L504.2,122.7 L504.4,122.6 L504.7,118.0 L504.9,118.2 L505.2,120.2 L505.5,116.5 L505.7,111.6 L506.0,111.7 L506.2,108.8 L506.5,102.8 L506.7,101.9 L507.0,101.9 L507.3,106.5 L507.5,105.2 L507.8,105.1 L508.0,109.7 L508.3,106.0 L508.5,106.0 L508.8,103.2 L509.1,108.4 L509.3,111.2 L509.6,113.9 L509.8,118.4 L510.1,117.2 L510.3,116.9 L510.6,121.3 L510.9,125.7 L511.1,119.9 L511.4,114.7 L511.6,114.6 L511.9,116.5 L512.1,111.4 L512.4,103.3 L512.7,100.4 L512.9,103.3 L513.2,111.2 L513.4,111.3 L513.7,107.2 L514.0,107.0 L514.2,107.0 L514.5,108.2 L514.7,106.1 L515.0,104.8 L515.2,105.1 L515.5,105.7 L515.8,100.1 L516.0,103.5 L516.3,105.3 L516.5,101.2 L516.8,101.0 L517.0,100.8 L517.3,96.9 L517.6,85.3 L517.8,79.3 L518.1,79.2 L518.3,80.5 L518.6,80.5 L518.8,81.1 L519.1,84.8 L519.4,84.7 L519.6,77.1 L519.9,78.0 L520.1,69.9 L520.4,81.5 L520.6,75.4 L520.9,80.0 L521.2,80.0 L521.4,74.9 L521.7,79.5 L521.9,78.2 L522.2,78.2 L522.5,75.8 L522.7,76.4 L523.0,76.5 L523.2,71.2 L523.5,79.2 L523.7,78.2 L524.0,79.9 L524.3,71.4 L524.5,70.8 L524.8,67.6 L525.0,63.5 L525.3,63.5 L525.5,58.6 L525.8,58.6 L526.1,63.7 L526.3,62.9 L526.6,63.0 L526.8,68.8 L527.1,69.7 L527.3,63.8 L527.6,63.8 L527.9,63.8 L528.1,55.2 L528.4,60.6 L528.6,64.4 L528.9,64.5 L529.1,69.0 L529.4,69.0 L529.7,65.9 L529.9,57.8 L530.2,46.1 L530.4,49.6 L530.7,49.4 L531.0,47.2 L531.2,46.8 L531.5,51.6 L531.7,49.2 L532.0,52.1 L532.2,53.4 L532.5,54.5 L532.8,51.7 L533.0,40.8 L533.3,37.4 L533.5,33.2 L533.8,33.2 L534.0,36.9 L534.3,37.0 L534.6,40.0 L534.8,32.7 L535.1,32.8 L535.3,28.2 L535.6,22.3 L535.8,23.6 L536.1,23.7 L536.4,22.4 L536.6,22.6 L536.9,28.6 L537.1,29.2 L537.4,28.6 L537.7,25.5 L537.9,31.0 L538.2,38.5 L538.4,43.8 L538.7,43.8 L538.9,35.7 L539.2,31.0 L539.5,35.0 L539.7,35.2 L540.0,41.2 L540.2,41.1 L540.5,42.3 L540.7,43.6 L541.0,41.1 L541.3,45.7 L541.5,51.1 L541.8,52.2 L542.0,48.4 L542.3,49.8 L542.5,43.2 L542.8,43.1 L543.1,46.9 L543.3,58.2 L543.6,64.2 L543.8,64.8 L544.1,62.7 L544.3,62.6 L544.6,63.6 L544.9,58.7 L545.1,63.2 L545.4,71.0 L545.6,71.0 L545.9,76.4 L546.2,73.5 L546.4,81.5 L546.7,78.8 L546.9,78.8 L547.2,84.0 L547.4,84.1 L547.7,85.3 L548.0,85.4 L548.2,88.0 L548.5,88.0 L548.7,87.8 L549.0,91.3 L549.2,91.2 L549.5,92.1 L549.8,92.0 L550.0,99.3 L550.3,95.4 L550.5,98.3 L550.8,98.9 L551.0,98.9 L551.3,95.7 L551.6,95.7 L551.8,97.7 L552.1,92.7 L552.3,92.5 L552.6,92.6 L552.8,87.3 L553.1,98.3 L553.4,98.3 L553.6,93.8 L553.9,105.1 L554.1,102.7 L554.4,102.8 L554.7,102.7 L554.9,102.7 L555.2,102.7 L555.4,113.7 L555.7,120.5 L555.9,132.2 L556.2,128.0 L556.5,126.8 L556.7,131.8 L557.0,131.3 L557.2,131.6 L557.5,132.4 L557.7,132.4 L558.0,136.8 L558.3,136.6 L558.5,138.6 L558.8,149.5 L559.0,149.7 L559.3,153.9 L559.5,153.9 L559.8,147.9 L560.1,147.0 L560.3,146.8 L560.6,154.0 L560.8,154.0 L561.1,150.3 L561.3,153.4 L561.6,149.0 L561.9,148.9 L562.1,142.1 L562.4,141.7 L562.6,137.0 L562.9,141.7 L563.2,138.7 L563.4,143.2 L563.7,142.9 L563.9,143.4 L564.2,138.6 L564.4,138.6 L564.7,146.8 L565.0,146.8 L565.2,146.8 L565.5,146.5 L565.7,148.7 L566.0,148.7 L566.2,149.6 L566.5,149.5 L566.8,147.3 L567.0,139.1 L567.3,139.0 L567.5,134.5 L567.8,138.9 L568.0,139.2 L568.3,142.4 L568.6,142.5 L568.8,142.5 L569.1,142.5 L569.3,139.6 L569.6,139.2 L569.9,142.6 L570.1,142.7 L570.4,142.5 L570.6,147.3 L570.9,147.2 L571.1,147.2 L571.4,135.3 L571.7,135.3 L571.9,138.1 L572.2,138.1 L572.4,140.8 L572.7,137.0 L572.9,131.6 L573.2,123.3 L573.5,123.4 L573.7,120.9 L574.0,121.0 L574.2,116.3 L574.5,111.1 L574.7,115.9 L575.0,110.7 L575.3,106.9 L575.5,102.4 L575.8,96.8 L576.0,100.9 L576.3,94.1 L576.5,98.2 L576.8,98.3 L577.1,106.4 L577.3,106.4 L577.6,107.2 L577.8,113.1 L578.1,108.6 L578.4,108.5 L578.6,113.7 L578.9,109.2 L579.1,97.7 L579.4,102.2 L579.6,97.5 L579.9,99.8 L580.2,97.1 L580.4,93.1 L580.7,93.2 L580.9,93.2 L581.2,85.1 L581.4,81.8 L581.7,82.0 L582.0,87.2 L582.2,86.1 L582.5,85.9 L582.7,85.3 L583.0,85.1 L583.2,86.6 L583.5,86.8 L583.8,86.8 L584.0,86.8 L584.3,86.7 L584.5,86.9 L584.8,91.1 L585.0,91.3 L585.3,91.5 L585.6,94.1 L585.8,83.7 L586.1,83.7 L586.3,83.8 L586.6,79.3 L586.9,87.5 L587.1,90.3 L587.4,90.9 L587.6,87.4 L587.9,95.6 L588.1,91.1 L588.4,95.6 L588.7,95.5 L588.9,101.0 L589.2,97.8 L589.4,98.0 L589.7,98.2 L589.9,99.7 L590.2,99.7 L590.5,99.9 L590.7,104.4 L591.0,100.0 L591.2,100.3 L591.5,100.3 L591.7,100.3 L592.0,100.3 L592.3,100.4 L592.5,93.2 L592.8,96.4 L593.0,96.5 L593.3,101.0 L593.5,101.2 L593.8,103.8 L594.1,112.1 L594.3,107.6 L594.6,107.0 L594.8,101.0 L595.1,103.8 L595.4,103.7 L595.6,100.0 L595.9,100.0 L596.1,100.0 L596.4,100.0 L596.6,100.1 L596.9,92.2 L597.2,100.2 L597.4,98.5 L597.7,98.5 L597.9,94.0 L598.2,94.1 L598.4,92.7 L598.7,92.8 L599.0,101.1 L599.2,93.2 L599.5,93.1 L599.7,92.8 L600.0,97.4 L600.2,102.6 L600.5,102.3 L600.8,103.1 L601.0,106.8 L601.3,107.6 L601.5,117.0 L601.8,117.5 L602.1,124.3 L602.3,124.2 L602.6,123.0 L602.8,118.5 L603.1,117.8 L603.3,113.3 L603.6,113.3 L603.9,113.3 L604.1,112.1 L604.4,112.1 L604.6,116.7 L604.9,128.2 L605.1,116.6 L605.4,121.5 L605.7,117.8 L605.9,120.3 L606.2,124.3 L606.4,116.8 L606.7,108.9 L606.9,112.5 L607.2,117.0 L607.5,116.9 L607.7,110.9 L608.0,113.2 L608.2,113.2 L608.5,118.4 L608.7,115.7 L609.0,115.6 L609.3,112.0 L609.5,112.1 L609.8,112.2 L610.0,113.0 L610.3,108.3 L610.6,107.9 L610.8,100.6 L611.1,100.6 L611.3,104.0 L611.6,115.1 L611.8,115.2 L612.1,115.1 L612.4,119.7 L612.6,119.7 L612.9,115.2 L613.1,119.0 L613.4,119.3 L613.6,119.4 L613.9,122.8 L614.2,120.6 L614.4,119.1 L614.7,118.0 L614.9,121.2 L615.2,117.2 L615.4,112.4 L615.7,115.6 L616.0,115.5 L616.2,115.5 L616.5,110.2 L616.7,114.7 L617.0,114.6 L617.2,114.6 L617.5,114.6 L617.8,114.6 L618.0,114.6 L618.3,126.4 L618.5,127.4 L618.8,127.3 L619.1,127.4 L619.3,122.7 L619.6,111.3 L619.8,111.2 L620.1,111.2 L620.3,109.2 L620.6,115.2 L620.9,110.7 L621.1,110.7 L621.4,115.7 L621.6,113.2 L621.9,108.7 L622.1,105.2 L622.4,105.3 L622.7,112.3 L622.9,115.8 L623.2,120.3 L623.4,120.4 L623.7,124.0 L623.9,123.8 L624.2,129.1 L624.5,130.3 L624.7,130.2 L625.0,132.8 L625.2,134.0 L625.5,122.3 L625.7,122.3 L626.0,122.3 L626.3,122.5 L626.5,119.1 L626.8,116.9 L627.0,118.5 L627.3,118.5 L627.6,118.4 L627.8,111.8 L628.1,111.9 L628.3,113.2 L628.6,117.6 L628.8,113.8 L629.1,113.7 L629.4,113.7 L629.6,118.2 L629.9,119.4 L630.1,114.9 L630.4,114.9 L630.6,107.2 L630.9,115.9 L631.2,110.6 L631.4,114.1 L631.7,114.1 L631.9,114.2 L632.2,121.6 L632.4,126.9 L632.7,129.9 L633.0,129.8 L633.2,129.7 L633.5,135.8 L633.7,131.3 L634.0,131.3 L634.3,127.8 L634.5,118.9 L634.8,117.5 L635.0,116.1 L635.3,116.0 L635.5,113.2 L635.8,113.1 L636.1,117.6 L636.3,118.1 L636.6,123.9 L636.8,123.9 L637.1,123.9 L637.3,123.9 L637.6,119.3 L637.9,119.4 L638.1,117.6 L638.4,114.9 L638.6,119.4 L638.9,112.0 L639.1,111.7 L639.4,111.1 L639.7,112.5 L639.9,113.7 L640.2,110.7 L640.4,114.6 L640.7,114.6 L640.9,106.8 L641.2,103.7 L641.5,100.9 L641.7,96.3 L642.0,96.2 L642.2,101.3 L642.5,101.4 L642.8,101.3 L643.0,89.7 L643.3,89.7 L643.5,89.7 L643.8,81.8 L644.0,78.0 L644.3,81.9 L644.6,81.9 L644.8,81.9 L645.1,86.5 L645.3,97.8 L645.6,93.3 L645.8,89.9 L646.1,92.6 L646.4,89.7 L646.6,89.8 L646.9,89.8 L647.1,89.7 L647.4,92.2 L647.6,96.7 L647.9,97.5 L648.2,97.6 L648.4,95.7 L648.7,87.9 L648.9,83.7 L649.2,83.6 L649.4,80.6 L649.7,77.7 L650.0,75.7 L650.2,75.2 L650.5,70.7 L650.7,75.8 L651.0,75.8 L651.3,87.5 L651.5,79.5 L651.8,79.7 L652.0,79.7 L652.3,87.4 L652.5,85.2 L652.8,87.3 L653.1,87.2 L653.3,82.7 L653.6,89.3 L653.8,86.3 L654.1,78.1 L654.3,78.1 L654.6,82.6 L654.9,82.0 L655.1,78.1 L655.4,74.0 L655.6,74.1 L655.9,72.7 L656.1,72.7 L656.4,80.4 L656.7,83.4 L656.9,88.7 L657.2,88.8 L657.4,84.3 L657.7,84.4 L657.9,84.4 L658.2,87.1 L658.5,88.7 L658.7,88.9 L659.0,88.9 L659.2,88.9 L659.5,88.9 L659.8,84.4 L660.0,87.9 L660.3,99.5 L660.5,96.4 L660.8,101.3 L661.0,98.7 L661.3,96.2 L661.6,96.4 L661.8,90.3 L662.1,90.5 L662.3,91.9 L662.6,91.9 L662.8,91.9 L663.1,89.0 L663.4,93.7 L663.6,85.4 L663.9,87.3 L664.1,90.3 L664.4,90.4 L664.6,93.3 L664.9,97.2 L665.2,97.7 L665.4,97.7 L665.7,98.7 L665.9,103.2 L666.2,103.2 L666.5,103.4 L666.7,114.9 L667.0,122.8 L667.2,125.6 L667.5,125.8 L667.7,123.0 L668.0,123.0 L668.3,123.0 L668.5,122.9 L668.8,130.0 L669.0,125.5 L669.3,120.9 L669.5,128.7 L669.8,129.7 L670.1,129.6 L670.3,129.6 L670.6,127.8 L670.8,116.5 L671.1,117.0 L671.3,117.1 L671.6,120.5 L671.9,120.6 L672.1,123.4 L672.4,123.3 L672.6,109.6 L672.9,101.3 L673.1,101.2 L673.4,101.1 L673.7,103.8 L673.9,100.9 L674.2,103.9 L674.4,112.0 L674.7,104.6 L675.0,102.1 L675.2,106.0 L675.5,108.9 L675.7,107.0 L676.0,100.1 L676.2,104.6 L676.5,100.0 L676.8,101.5 L677.0,101.5 L677.3,109.5 L677.5,107.4 L677.8,107.4 L678.0,104.5 L678.3,109.0 L678.6,109.0 L678.8,104.9 L679.1,109.4 L679.3,109.4 L679.6,112.3 L679.8,120.4 L680.1,109.1 L680.4,109.1 L680.6,110.5 L680.9,114.4 L681.1,118.4 L681.4,115.2 L681.6,121.2 L681.9,121.1 L682.2,121.1 L682.4,117.3 L682.7,113.4 L682.9,108.4 L683.2,113.0 L683.5,112.9 L683.7,112.9 L684.0,112.9 L684.2,110.2 L684.5,110.2 L684.7,110.0 L685.0,110.0 L685.3,114.5 L685.5,119.1 L685.8,119.1 L686.0,114.5 L686.3,119.1 L686.5,114.6 L686.8,117.3 L687.1,117.3 L687.3,117.5 L687.6,123.7 L687.8,121.8 L688.1,122.6 L688.3,118.8 L688.6,115.9 L688.9,117.5 L689.1,113.9 L689.4,121.0 L689.6,120.9 L689.9,120.6 L690.1,120.5 L690.4,121.7 L690.7,118.6 L690.9,115.9 L691.2,115.9 L691.4,116.2 L691.7,116.5 L692.0,114.6 L692.2,111.7 L692.5,103.3 L692.7,97.8 L693.0,97.8 L693.2,102.2 L693.5,105.0 L693.8,99.5 L694.0,98.1 L694.3,98.4 L694.5,98.5 L694.8,103.2 L695.0,107.7 L695.3,96.2 L695.6,99.1 L695.8,94.6 L696.1,94.8 L696.3,91.7 L696.6,102.9 L696.8,98.0 L697.1,93.7 L697.4,92.4 L697.6,90.7 L697.9,86.1 L698.1,89.5 L698.4,103.2 L698.6,103.1 L698.9,98.6 L699.2,98.9 L699.4,93.7 L699.7,84.8 L699.9,82.2 L700.2,78.2 L700.5,89.8 L700.7,87.9 L701.0,88.0 L701.2,88.0 L701.5,92.1 L701.7,103.7 L702.0,103.8 L702.3,108.7 L702.5,108.7 L702.8,105.8 L703.0,105.7 L703.3,102.9 L703.5,102.9 L703.8,101.6 L704.1,101.7 L704.3,101.7 L704.6,104.2 L704.8,101.4 L705.1,101.5 L705.3,101.9 L705.6,101.9 L705.9,110.3 L706.1,110.3 L706.4,114.1 L706.6,108.0 L706.9,108.2 L707.2,111.5 L707.4,111.5 L707.7,107.1 L707.9,107.4 L708.2,111.0 L708.4,115.1 L708.7,115.5 L709.0,110.6 L709.2,98.6 L709.5,98.7 L709.7,98.7 L710.0,101.5 L710.2,101.4 L710.5,97.0 L710.8,94.5 L711.0,94.5 L711.3,91.7 L711.5,83.1 L711.8,87.8 L712.0,87.7 L712.3,83.6 L712.6,72.7 L712.8,77.9 L713.1,77.9 L713.3,75.7 L713.6,74.8 L713.8,69.6 L714.1,73.4 L714.4,76.3 L714.6,77.6 L714.9,79.8 L715.1,79.3 L715.4,79.4 L715.7,79.4 L715.9,79.6 L716.2,80.1 L716.4,83.0 L716.7,82.6 L716.9,82.6 L717.2,70.4 L717.5,70.1 L717.7,71.4 L718.0,74.5 L718.2,83.1 L718.5,83.1 L718.7,73.5 L719.0,73.5 L719.3,69.1 L719.5,74.7 L719.8,76.2 L720.0,67.4 L720.3,72.1 L720.5,68.1 L720.8,68.1 L721.1,75.4 L721.3,75.3 L721.6,79.8 L721.8,79.5 L722.1,81.5 L722.3,81.5 L722.6,82.0 L722.9,90.9 L723.1,96.8 L723.4,93.8 L723.6,89.9 L723.9,90.9 L724.2,91.2 L724.4,99.5 L724.7,104.0 L724.9,100.0 L725.2,105.2 L725.4,112.5 L725.7,110.4 L726.0,110.0 L726.2,108.5 L726.5,111.9 L726.7,112.0 L727.0,104.7 L727.2,98.5 L727.5,98.5 L727.8,98.7 L728.0,98.6 L728.3,98.6 L728.5,101.8 L728.8,101.8 L729.0,106.4 L729.3,106.7 L729.6,110.9 L729.8,110.8 L730.1,110.8 L730.3,112.5 L730.6,115.3 L730.8,115.2 L731.1,112.1 L731.4,112.2 L731.6,115.1 L731.9,115.0 L732.1,106.3 L732.4,112.2 L732.7,112.5 L732.9,112.3 L733.2,111.5 L733.4,116.0 L733.7,115.8 L733.9,104.2 L734.2,103.9 L734.5,108.4 L734.7,113.2 L735.0,125.1 L735.2,125.0 L735.5,120.4 L735.7,115.3 L736.0,112.5 L736.3,117.0 L736.5,116.2 L736.8,111.7 L737.0,115.0 L737.3,123.4 L737.5,120.6 L737.8,120.6 L738.1,129.3 L738.3,128.6 L738.6,128.6 L738.8,128.6 L739.1,126.4 L739.4,128.9 L739.6,129.5 L739.9,127.5 L740.1,123.2 L740.4,120.5 L740.6,120.2 L740.9,116.5 L741.2,116.3 L741.4,110.3 L741.7,110.0 L741.9,120.3 L742.2,108.8 L742.4,112.1 L742.7,107.7 L743.0,119.6 L743.2,119.0 L743.5,119.3 L743.7,119.1 L744.0,119.2 L744.2,124.4 L744.5,129.6 L744.8,129.7 L745.0,134.2 L745.3,134.1 L745.5,134.0 L745.8,142.5 L746.0,142.2 L746.3,142.2 L746.6,130.6 L746.8,126.2 L747.1,126.2 L747.3,126.2 L747.6,121.8 L747.9,124.7 L748.1,124.7 L748.4,128.7 L748.6,128.4 L748.9,128.8 L749.1,128.9 L749.4,137.5 L749.7,126.0 L749.9,122.0 L750.2,121.9 L750.4,122.2 L750.7,126.2 L750.9,126.1 L751.2,126.2 L751.5,128.3 L751.7,121.1 L752.0,118.1 L752.2,114.7 L752.5,115.0 L752.7,119.4 L753.0,125.3 L753.3,125.1 L753.5,118.9 L753.8,106.9 L754.0,106.8 L754.3,101.3 L754.5,101.4 L754.8,101.6 L755.1,101.3 L755.3,101.3 L755.6,92.9 L755.8,88.4 L756.1,88.6 L756.4,88.8 L756.6,84.3 L756.9,86.9 L757.1,86.9 L757.4,87.0 L757.6,85.5 L757.9,89.7 L758.2,89.7 L758.4,86.5 L758.7,81.2 L758.9,81.8 L759.2,81.9 L759.4,79.0 L759.7,90.5 L760.0,87.6 L760.2,85.8 L760.5,81.4 L760.7,81.6 L761.0,81.9 L761.2,85.9 L761.5,82.1 L761.8,81.2 L762.0,69.8 L762.3,69.2 L762.5,73.7 L762.8,70.1 L763.0,67.1 L763.3,65.3 L763.6,53.6 L763.8,53.7 L764.1,65.5 L764.3,65.8 L764.6,61.4 L764.9,65.8 L765.1,61.2 L765.4,65.0 L765.6,67.1 L765.9,71.6 L766.1,74.3 L766.4,69.8 L766.7,75.0 L766.9,72.3 L767.2,73.9 L767.4,73.8 L767.7,61.6 L767.9,73.1 L768.2,72.8 L768.5,74.6 L768.7,71.8 L769.0,72.7 L769.2,68.3 L769.5,68.5 L769.7,68.3 L770.0,68.2 L770.3,72.7 L770.5,72.7 L770.8,72.6 L771.0,72.7 L771.3,63.7 L771.6,64.0 L771.8,59.6 L772.1,59.6 L772.3,71.2 L772.6,76.7 L772.8,75.3 L773.1,70.9 L773.4,75.7 L773.6,71.2 L773.9,71.3 L774.1,71.1 L774.4,71.2 L774.6,67.5 L774.9,67.4 L775.2,66.1 L775.4,66.8 L775.7,70.7 L775.9,66.3 L776.2,61.6 L776.4,58.4 L776.7,58.7 L777.0,62.9 L777.2,60.4 L777.5,72.4 L777.7,76.9 L778.0,81.3 L778.2,81.0 L778.5,83.9 L778.8,84.0 L779.0,84.0 L779.3,87.8 L779.5,96.1 L779.8,96.2 L780.1,101.5 L780.3,92.2 L780.6,88.3 L780.8,88.3 L781.1,88.2 L781.3,88.1 L781.6,92.6 L781.9,92.4 L782.1,92.2 L782.4,96.7 L782.6,96.8 L782.9,91.9 L783.1,88.0 L783.4,88.4 L783.7,93.5 L783.9,93.7 L784.2,93.3 L784.4,98.7 L784.7,98.8 L784.9,90.2 L785.2,80.7 L785.5,79.5 L785.7,80.8 L786.0,83.0 L786.2,85.9 L786.5,81.2 L786.7,77.3 L787.0,78.1 L787.3,86.9 L787.5,90.7 L787.8,102.2 L788.0,105.9 L788.3,105.9 L788.6,107.0 L788.8,101.6 L789.1,103.2 L789.3,114.9 L789.6,110.2 L789.8,109.9 L790.1,103.7 L790.4,107.9 L790.6,107.9 L790.9,112.2 L791.1,112.3 L791.4,112.8 L791.6,108.0 L791.9,103.4 L792.2,104.2 L792.4,95.6 L792.7,96.8 L792.9,101.4 L793.2,99.9 L793.4,104.7 L793.7,104.7 L794.0,95.8 L794.2,98.5 L794.5,101.3 L794.7,101.1 L795.0,96.9 L795.2,96.7 L795.5,93.8 L795.8,89.2 L796.0,87.2 L796.3,82.6 L796.5,82.6 L796.8,81.1 L797.1,87.9 L797.3,87.6 L797.6,87.6 L797.8,91.3 L798.1,86.8 L798.3,90.0 L798.6,91.4 L798.9,93.0 L799.1,92.6 L799.4,97.1 L799.6,92.5 L799.9,93.1 L800.1,93.0 L800.4,96.3 L800.7,94.5 L800.9,93.3 L801.2,92.7 L801.4,89.8 L801.7,93.7 L801.9,95.4 L802.2,98.2 L802.5,98.1 L802.7,98.5 L803.0,103.6 L803.2,97.9 L803.5,96.4 L803.8,96.5 L804.0,96.5 L804.3,96.7 L804.5,96.0 L804.8,91.5 L805.0,93.6 L805.3,92.4 L805.6,92.4 L805.8,92.4 L806.1,97.8 L806.3,94.4 L806.6,94.6 L806.8,94.7 L807.1,100.5 L807.4,96.1 L807.6,92.9 L807.9,88.3 L808.1,88.6 L808.4,88.6 L808.6,91.8 L808.9,95.6 L809.2,97.1 L809.4,97.0 L809.7,92.0 L809.9,91.2 L810.2,82.5 L810.4,82.5 L810.7,91.1 L811.0,103.3 L811.2,100.9 L811.5,102.3 L811.7,97.6 L812.0,94.3 L812.3,96.7 L812.5,99.3 L812.8,99.1 L813.0,99.2 L813.3,99.1 L813.5,96.4 L813.8,92.1 L814.1,90.5 L814.3,93.1 L814.6,101.8 L814.8,100.1 L815.1,95.5 L815.3,91.3 L815.6,91.6 L815.9,86.1 L816.1,86.0 L816.4,86.0 L816.6,86.7 L816.9,83.6 L817.1,78.9 L817.4,81.9 L817.7,86.6 L817.9,92.0 L818.2,89.1 L818.4,90.9 L818.7,90.9 L818.9,92.6 L819.2,84.0 L819.5,84.3 L819.7,93.5 L820.0,93.4 L820.2,93.4 L820.5,88.8 L820.8,97.5 L821.0,85.7 L821.3,88.7 L821.5,93.4 L821.8,89.4 L822.0,94.0 L822.3,91.3 L822.6,89.1 L822.8,91.3 L823.1,91.3 L823.3,96.0 L823.6,96.2 L823.8,89.3 L824.1,85.5 L824.4,85.4 L824.6,83.7 L824.9,83.7 L825.1,72.3 L825.4,76.8 L825.6,72.5 L825.9,61.9 L826.2,61.9 L826.4,68.4 L826.7,70.9 L826.9,82.4 L827.2,85.2 L827.4,77.3 L827.7,80.2 L828.0,80.3 L828.2,74.3 L828.5,73.9 L828.7,65.3 L829.0,70.8 L829.3,60.7 L829.5,61.0 L829.8,60.9 L830.0,59.1 L830.3,55.9 L830.5,60.7 L830.8,60.9 L831.1,64.3 L831.3,64.5 L831.6,64.5 L831.8,63.9 L832.1,71.1 L832.3,68.0 L832.6,62.8 L832.9,60.5 L833.1,59.0 L833.4,59.4 L833.6,55.4 L833.9,55.1 L834.1,55.1 L834.4,53.0 L834.7,53.3 L834.9,52.9 L835.2,52.4 L835.4,52.7 L835.7,51.6 L836.0,55.7 L836.2,55.7 L836.5,44.1 L836.7,39.7 L837.0,34.9 L837.2,33.8 L837.5,38.3 L837.8,41.6 L838.0,39.4 L838.3,40.4 L838.5,40.4 L838.8,37.5 L839.0,35.0 L839.3,37.8 L839.6,42.3 L839.8,43.7 L840.1,43.5 L840.3,43.2 L840.6,45.9 L840.8,47.7 L841.1,52.1 L841.4,52.2 L841.6,64.1 L841.9,64.1 L842.1,52.6 L842.4,52.2 L842.6,49.0 L842.9,53.2 L843.2,55.1 L843.4,46.4 L843.7,42.4 L843.9,53.9 L844.2,50.8 L844.5,51.0 L844.7,50.7 L845.0,56.3 L845.2,56.3 L845.5,56.1 L845.7,50.0 L846.0,44.8 L846.3,46.6 L846.5,46.6 L846.8,58.2 L847.0,58.5 L847.3,58.7 L847.5,64.6 L847.8,64.7 L848.1,67.7 L848.3,71.5 L848.6,71.5 L848.8,71.5 L849.1,66.0 L849.3,59.7 L849.6,71.2 L849.9,74.8 L850.1,74.8 L850.4,79.4 L850.6,75.6 L850.9,87.4 L851.1,86.1 L851.4,89.9 L851.7,100.6 L851.9,100.9 L852.2,100.9 L852.4,100.7 L852.7,96.4 L853.0,96.3 L853.2,98.7 L853.5,98.6 L853.7,98.5 L854.0,104.8 L854.2,102.9 L854.5,111.6 L854.8,110.3 L855.0,122.2 L855.3,117.3 L855.5,117.3 L855.8,107.3 L856.0,111.1 L856.3,108.0 L856.6,107.8 L856.8,109.2 L857.1,106.1 L857.3,105.3 L857.6,109.8 L857.8,109.8 L858.1,110.0 L858.4,115.3 L858.6,114.4 L858.9,120.5 L859.1,123.1 L859.4,131.7 L859.6,120.2 L859.9,120.2 L860.2,117.9 L860.4,117.6 L860.7,117.7 L860.9,117.6 L861.2,122.1 L861.5,115.5 L861.7,120.0 L862.0,120.0 L862.2,131.6 L862.5,131.3 L862.7,140.1 L863.0,141.2 L863.3,139.9 L863.5,141.2 L863.8,145.5 L864.0,145.4 L864.3,145.5 L864.5,145.5 L864.8,146.8 L865.1,146.7 L865.3,143.9 L865.6,141.3 L865.8,139.8 L866.1,140.0 L866.3,142.0 L866.6,141.3 L866.9,145.5 L867.1,144.5 L867.4,135.7 L867.6,135.0 L867.9,146.5 L868.2,146.8 L868.4,152.9 L868.7,147.6 L868.9,147.3 L869.2,156.1 L869.4,155.5 L869.7,151.6 L870.0,150.0 L870.2,142.2 L870.5,142.2 L870.7,140.8 L871.0,140.5 L871.2,140.5 L871.5,146.6 L871.8,143.4 L872.0,141.1 L872.3,136.6 L872.5,136.6 L872.8,136.6 L873.0,136.3 L873.3,136.6 L873.6,125.1 L873.8,124.8 L874.1,124.7 L874.3,120.2 L874.6,119.9 L874.8,123.2 L875.1,126.5 L875.4,126.5 L875.6,126.7 L875.9,120.8 L876.1,120.8 L876.4,122.7 L876.7,122.4 L876.9,123.7 L877.2,124.0 L877.4,123.8 L877.7,118.4 L877.9,118.8 L878.2,107.4 L878.5,107.2 L878.7,107.4 L879.0,113.3 L879.2,113.4 L879.5,109.1 L879.7,106.4 L880.0,107.6"/>
</svg>