<svg xmlns="http://www.w3.org/2000/svg" viewBox="0 0 720 240" role="img" aria-label="Просадка от максимума, %"><line x1="34" y1="34.0" x2="686" y2="34.0" stroke="#39424c" stroke-width="1"/><path d="M34.0,34.0 L46.1,34.3 L58.1,34.0 L70.2,34.0 L82.3,34.0 L94.4,45.4 L106.4,56.0 L118.5,77.6 L130.6,88.2 L142.7,105.2 L154.7,121.7 L166.8,77.7 L178.9,86.2 L191.0,97.9 L203.0,108.1 L215.1,103.2 L227.2,114.6 L239.3,124.8 L251.3,134.8 L263.4,145.0 L275.5,155.3 L287.6,157.1 L299.6,132.3 L311.7,89.9 L323.8,86.1 L335.9,65.1 L347.9,76.5 L360.0,55.1 L372.1,34.6 L384.1,34.0 L396.2,44.7 L408.3,34.0 L420.4,50.3 L432.4,38.8 L444.5,34.0 L456.6,44.2 L468.7,58.7 L480.7,71.4 L492.8,55.1 L504.9,69.1 L517.0,82.7 L529.0,94.6 L541.1,105.1 L553.2,117.3 L565.3,135.6 L577.3,147.9 L589.4,159.5 L601.5,170.2 L613.6,182.4 L625.6,195.4 L637.7,206.0 L649.8,181.8 L661.9,172.4 L673.9,186.2 L686.0,182.6" fill="none" stroke="#c9705c" stroke-width="2" stroke-linejoin="round"/><text x="34" y="22" fill="#8b959f" font-family="system-ui" font-size="12">Просадка от максимума, %</text><text x="686" y="22" text-anchor="end" fill="#8b959f" font-family="system-ui" font-size="12">+14.1%</text></svg>